<!--?xml version="1.0" encoding="UTF-8" standalone="no"?-->
<svg xmlns="http://www.w3.org/2000/svg" version="1.1" id="svg10" width="64" height="64" viewBox="100 20 350 350">
    <g id="g18">
        <path id="path22" style="fill:#fff;stroke-width:0.956657"
            d="m 256.20872,64.007176 c -10.31533,0.07966 -20.73133,0.822703 -27.80897,2.202515 -13.83563,2.697311 -25.66133,6.402487 -39.09128,12.246898 -13.27208,5.775708 -17.98768,8.544459 -30.34541,17.821475 -25.75289,19.332836 -44.95765,48.935716 -50.66074,78.089506 -3.12716,15.98582 -1.75872,45.07529 2.30911,49.07863 3.91036,3.84839 11.26685,-0.59712 9.99016,-6.03678 -0.34897,-1.48686 -1.0755,-7.03965 -1.61517,-12.33969 -2.22872,-21.88778 3.90793,-47.96063 15.55954,-66.11049 25.90351,-40.350143 71.60899,-64.502256 122.12339,-64.534759 21.87515,-0.01407 46.01074,5.189513 63.34487,13.656298 28.97155,14.151041 51.82733,35.491081 63.36682,59.166791 5.54296,11.37256 7.41105,16.65223 9.713,27.4439 1.87727,8.80076 2.10778,27.52515 0.45863,37.26069 -1.32937,7.84778 -0.68695,11.0663 2.40881,12.07181 5.03654,1.63586 6.96868,-0.50722 8.81767,-9.77826 4.27492,-21.43487 0.81117,-48.34046 -8.76582,-68.10991 -5.13045,-10.5906 -16.50057,-26.82663 -24.78401,-35.39082 -21.44968,-22.176705 -52.94326,-38.301483 -87.8198,-44.960735 -6.67042,-1.273635 -16.88546,-1.856736 -27.2008,-1.777069 z m 1.22036,15.788781 c -1.07595,0 -2.60343,1.798137 -4.16955,4.907513 -1.81306,3.59956 -3.15922,5.060097 -5.04892,5.476527 -3.29091,0.725202 -3.30186,1.972149 -0.0239,2.694493 1.40381,0.309355 2.55525,0.821701 2.56035,1.138024 0.005,0.316323 1.39414,2.692045 3.0848,5.280439 3.44167,5.269177 5.66018,6.225267 4.68002,2.016927 -0.3445,-1.479079 -0.89807,-3.83955 -1.23033,-5.245419 -0.58308,-2.467243 -0.43868,-2.576413 4.17952,-3.132195 4.15827,-0.500428 5.03495,-0.31245 6.69602,1.435662 1.40595,1.47963 1.9371,1.656182 2.01,0.667058 0.0545,-0.739541 0.24996,-2.684004 0.4327,-4.320993 l 0.33101,-2.976373 -2.30112,1.899627 c -2.11398,1.74372 -2.69795,1.812101 -7.13271,0.831633 -5.23803,-1.158063 -5.15536,-0.929951 -3.04093,-8.32684 0.52189,-1.825749 0.29496,-2.346083 -1.02693,-2.346083 z m -43.544,13.495225 c -1.69581,0.02379 -3.44342,0.500476 -4.48859,1.418154 -1.24636,1.094328 -1.96418,1.208024 -2.82956,0.448207 -1.44707,-1.270562 -5.35792,-1.315744 -7.96422,-0.09104 -3.07673,1.445761 -2.32386,2.595519 1.35596,2.071206 2.5343,-0.361093 3.79111,-0.02671 5.26228,1.400646 2.54293,2.467135 4.26577,2.366935 6.30518,-0.365916 1.17025,-1.568158 2.59331,-2.241037 4.74185,-2.241037 2.61353,0 2.88246,-0.200095 1.80062,-1.34462 -0.84239,-0.891194 -2.4877,-1.319391 -4.18352,-1.295597 z m 89.85374,3.536634 c -4.31272,0 -9.09883,2.863154 -9.09883,5.443254 0,1.23179 -0.7129,1.72805 -2.4806,1.72805 -2.73328,0 -6.04048,2.361 -5.12669,3.65918 0.31991,0.45448 9.28496,0.82288 19.98633,0.82288 h 19.40606 l -0.32304,-2.37584 c -0.17985,-1.32316 -1.57726,-3.19477 -3.15259,-4.22294 -2.40919,-1.57243 -3.28182,-1.69656 -5.87047,-0.83864 -2.32424,0.77028 -3.22055,0.74896 -3.80663,-0.0893 -1.565,-2.238314 -5.92593,-4.126645 -9.53354,-4.126644 z m -46.20206,11.751414 c -1.3254,0.0133 -2.71682,0.0585 -4.19547,0.13131 -10.53292,0.51861 -17.88448,2.6307 -28.12603,8.07823 -8.63762,4.59439 -12.43517,7.8003 -18.29139,15.44737 -8.22519,10.74048 -11.31621,19.31283 -11.31621,31.37447 0,8.65041 1.51011,14.7007 5.59728,22.41033 5.47017,10.31838 12.67753,18.38323 21.63341,24.20667 10.46203,6.80279 18.39685,13.53244 20.83779,17.67265 2.18124,3.69969 4.98168,13.24391 5.00506,17.05987 0.0132,2.14437 -0.38259,2.46513 -3.0469,2.46513 h -3.06286 v 7.0225 c 0,3.86205 0.30561,7.29083 0.67997,7.61951 0.37434,0.32869 6.80634,0.59702 14.29332,0.59702 h 13.61336 v -7.61951 -7.61952 h -3.20443 -3.20244 l 0.63012,-4.70617 c 1.6612,-12.40716 6.64953,-20.16162 17.5177,-27.23381 25.18121,-16.38605 35.26645,-31.32779 35.20489,-52.15655 -0.0438,-14.79955 -5.35522,-26.08912 -17.63136,-37.47603 -6.68888,-6.20437 -9.4419,-8.02124 -17.35618,-11.45378 -10.24852,-4.44495 -16.30184,-5.91251 -25.57963,-5.81969 z m -74.02299,0.39218 c -4.9234,0 -8.037,2.17955 -8.90343,6.23463 -0.50222,2.35053 -2.82639,4.45716 -12.39898,11.24018 -12.50662,8.86203 -12.50651,8.86074 -17.29038,21.47715 -2.45273,6.46857 -3.70093,8.32574 -8.26333,12.28893 -5.88929,5.11579 -10.47472,10.58351 -10.47472,12.4885 0,0.67394 1.02769,1.20862 2.29714,1.1958 1.59262,-0.016 3.33458,-1.36792 5.68303,-4.40853 3.93411,-5.09354 8.59357,-7.36833 16.26146,-7.93991 6.95537,-0.51847 11.49169,1.06289 11.49169,4.00585 0,3.25935 4.31339,6.57253 8.55645,6.57253 6.95679,0 10.30904,-7.71947 5.27226,-12.14185 -2.51917,-2.21188 -5.4873,-2.66018 -9.19056,-1.38839 -1.96533,0.67493 -7.70101,-0.65404 -7.70101,-1.78407 0,-0.31824 1.55598,-1.53949 3.45768,-2.71551 1.90169,-1.17602 6.07527,-3.92848 9.27631,-6.11556 4.98791,-3.40798 6.0971,-3.82453 7.75882,-2.91335 2.93101,1.60716 5.84748,1.27897 7.11476,-0.80012 1.97755,-3.24436 0.53391,-4.41204 -5.45571,-4.41204 -5.33505,0 -5.76694,0.20099 -16.62237,7.71582 -18.05797,12.50087 -19.9938,12.51881 -14.52264,0.1313 2.23136,-5.05211 4.53334,-9.69156 5.11672,-10.30875 0.58339,-0.61719 5.62697,-4.34952 11.20854,-8.29533 8.42925,-5.95893 10.472,-7.02284 12.05999,-6.27664 5.87835,2.76223 13.29751,-0.85048 13.25443,-6.45523 -0.0351,-4.57162 -3.08362,-7.39541 -7.98615,-7.39541 z m 77.46671,4.56611 3.64312,3.07442 c 11.661,9.84137 18.54014,33.06294 15.83871,53.4679 -1.99147,15.04233 -6.37316,26.63801 -13.731,36.33276 -1.77665,2.34092 -3.51788,4.25707 -3.86845,4.25797 -0.35057,8.9e-4 1.08182,-4.37538 3.1825,-9.72574 6.86129,-17.4755 7.65821,-21.83721 7.56541,-41.36808 -0.0775,-16.30881 -0.26834,-18.02065 -2.84949,-25.54779 -1.52158,-4.43724 -4.34448,-10.86271 -6.27327,-14.27957 z m -9.71898,1.43041 c 0.0473,0.008 0.0882,0.0267 0.12163,0.056 0.21654,0.19012 -0.93454,2.93008 -2.55836,6.08931 -11.74943,22.85938 -11.95998,48.82992 -0.64408,79.56369 2.05609,5.58428 3.55895,10.31087 3.34003,10.5031 -0.79939,0.70187 -7.79638,-8.30206 -11.49169,-14.78732 -11.55577,-20.28029 -12.16979,-46.44866 -1.54738,-65.95817 3.34187,-6.13781 11.31317,-15.72646 12.77985,-15.46663 z m 90.50378,1.01197 c -0.88788,0.0339 -1.80267,0.34495 -2.58826,1.03472 -1.25456,1.10152 -1.39864,1.8698 -0.59822,3.18297 1.27765,2.09609 4.3247,2.24901 6.15762,0.30989 2.10528,-2.22728 -0.30749,-4.62919 -2.97114,-4.52758 z m 8.78178,2.8433 c -0.62056,-0.0665 -1.22339,0.25645 -1.85645,0.92619 -0.99111,1.04856 -0.26846,2.99296 3.72887,10.03212 8.48202,14.93649 8.8086,15.64099 6.75981,14.55621 -3.01434,-1.59603 -11.92829,-7.12452 -12.63627,-7.83661 -7.0998,-7.141 -9.68924,-7.97144 -14.50071,-4.6484 -3.80022,2.62461 -3.80022,8.0028 0,10.62741 3.35001,2.31368 6.51223,2.36256 9.715,0.15057 2.43978,-1.68504 2.51873,-1.68213 6.05791,0.2241 10.04824,5.41206 18.44253,11.80623 21.34228,16.25624 2.6734,4.10263 6.83999,17.17857 5.77277,18.11561 -0.21988,0.19306 -1.99391,-0.47362 -3.94223,-1.48293 -2.50182,-1.29606 -3.89862,-2.88334 -4.7578,-5.40124 -0.6691,-1.96084 -2.09023,-3.974 -3.15657,-4.47507 -8.1191,-3.81517 -16.26983,4.6574 -10.06196,10.45933 2.37491,2.2196 7.74341,2.82884 9.71101,1.10126 0.79894,-0.70148 2.98476,0.0655 7.8047,2.73825 7.80389,4.32739 12.23357,8.44532 13.92641,12.94898 0.82906,2.20563 1.82375,3.21448 3.17054,3.21448 3.66772,0 2.05847,-5.14865 -4.59428,-14.69628 -1.33801,-1.92022 -3.24555,-6.96255 -4.23934,-11.20517 -1.47575,-6.30002 -3.51971,-10.58927 -11.15072,-23.40129 -5.13894,-8.62798 -10.63106,-18.38493 -12.20356,-21.68375 -2.07113,-4.34488 -3.52414,-6.37371 -4.88941,-6.52001 z m -68.3918,4.87425 c 0.25904,-0.0341 1.48999,0.93727 3.69696,2.99038 13.27498,12.34951 17.92044,34.40292 11.36408,53.95463 -1.48797,4.43725 -4.03229,9.88296 -5.65313,12.10158 -1.62082,2.21863 -5.1208,5.8491 -7.77877,8.06773 l -4.83357,4.03386 4.29119,-4.40503 c 10.13648,-10.40482 14.80615,-22.41586 14.8377,-38.17461 0.028,-13.94162 -3.66437,-24.18495 -12.11384,-33.61551 -2.87015,-3.20342 -4.14367,-4.90912 -3.81062,-4.95303 z m -51.87313,0.0228 c 0.57996,0 -0.54195,1.95109 -2.49256,4.335 -7.86053,9.60665 -12.73102,22.50759 -12.76788,33.8221 -0.0389,11.94761 3.97002,22.95603 12.70806,34.90059 2.8854,3.94422 5.59448,7.67554 6.02003,8.29183 1.24278,1.79984 0.44717,1.36697 -5.77276,-3.13745 -10.71092,-7.75675 -16.74431,-15.96059 -19.55363,-26.59651 -3.06954,-11.62111 -1.31439,-25.70979 4.36298,-35.03016 2.72573,-4.47477 15.50118,-16.5854 17.49576,-16.5854 z m -77.86751,54.68122 c -2.21105,-0.059 -5.01409,0.50213 -5.94426,1.49344 -1.25592,1.33849 -1.13482,1.43651 1.16054,0.93493 2.9943,-0.65432 4.33827,-0.0446 6.00008,2.72601 1.59747,2.66343 3.75465,2.55198 5.88643,-0.30464 1.39662,-1.87153 2.2927,-2.22396 4.61821,-1.81559 2.10932,0.37041 2.88539,0.15583 2.88539,-0.79837 0,-1.80236 -4.86264,-2.70818 -8.3431,-1.55471 -1.69731,0.56251 -3.11455,0.61837 -3.45369,0.13656 -0.36828,-0.52321 -1.48298,-0.78221 -2.8096,-0.81763 z m 215.22342,12.10158 -0.51047,8.75228 -0.51048,8.7523 -3.83256,-2.39861 c -2.108,-1.31928 -4.02384,-2.23261 -4.2553,-2.02919 -1.76619,1.55227 -16.70723,30.75437 -16.25945,31.77891 0.45104,1.03204 2.81948,1.3096 11.18262,1.3096 h 10.61231 v 10.15994 c 0,5.58765 0.3221,10.44274 0.71586,10.78847 0.39376,0.34574 1.42748,0.50868 2.29714,0.36242 1.30059,-0.21872 1.63183,-2.13381 1.86843,-10.78848 l 0.28714,-10.52235 h 11.59937 c 12.82681,0 13.89748,-0.48632 11.08889,-5.04232 -0.87362,-1.41717 -4.10289,-7.01444 -7.17657,-12.43774 -3.07368,-5.4233 -8.18044,-14.0961 -11.34813,-19.27289 z m -203.50242,0.80888 c -0.73584,0.0418 -1.43949,0.19547 -1.9442,0.45346 -1.62868,0.83253 -1.58179,0.92788 0.48057,0.95244 1.25867,0.015 2.86201,0.83303 3.56336,1.81908 1.5004,2.10945 4.68062,2.3677 5.51952,0.44821 0.33874,-0.77503 1.86605,-1.34462 3.60324,-1.34462 1.89956,0 2.7609,-0.35755 2.33105,-0.96819 -0.3751,-0.53288 -2.58407,-0.85116 -4.90935,-0.70734 -2.32528,0.14383 -5.25248,-0.0501 -6.50458,-0.43069 -0.63574,-0.19323 -1.40378,-0.26414 -2.13961,-0.22235 z m -20.68624,5.18239 c -0.4577,-0.15627 -3.32925,3.07082 -6.38095,7.17131 -3.0517,4.10049 -7.01828,9.16932 -8.81568,11.26469 l -3.26824,3.80975 h 3.66107 c 2.01391,0 3.66306,0.24955 3.66306,0.55326 0,0.71064 -6.33746,8.36285 -12.16169,14.68577 l -4.54244,4.93028 5.72491,0.4482 5.72292,0.44821 -2.73185,3.31428 c -1.50292,1.82296 -4.94112,5.75597 -7.64119,8.74003 l -4.90934,5.42575 h 13.84267 13.84268 v 2.68924 c 0,2.39044 0.34031,2.68924 3.06285,2.68924 2.72254,0 3.06286,-0.2988 3.06286,-2.68924 0,-2.68834 0.002,-2.68924 6.09979,-2.68924 h 6.09979 l -1.09075,-2.46514 c -0.60056,-1.35582 -1.16795,-5.38968 -1.26024,-8.96413 -0.13961,-5.4067 0.10408,-6.499 1.45565,-6.499 0.89354,0 3.11363,-1.62423 4.93128,-3.61016 l 3.30414,-3.61016 -3.99806,-4.23346 c -2.19839,-2.32805 -4.78894,-5.31688 -5.75881,-6.64081 l -1.76474,-2.40561 3.60126,-0.28363 3.60324,-0.28188 -8.26133,-10.75696 c -4.54328,-5.91633 -8.63515,-10.88432 -9.09286,-11.04059 z m 189.55806,2.67523 c -1.79972,-0.0355 -3.69558,0.5143 -6.50857,1.63525 -3.47305,1.38399 -4.81818,2.61217 -6.48265,5.91598 -3.41882,6.78602 -0.53937,13.12651 7.35006,16.18271 l 4.09178,1.58624 -0.28714,9.37732 c -0.16023,5.22422 -0.73938,9.51006 -1.3081,9.67496 -0.56152,0.16283 -2.37667,-1.82068 -4.03196,-4.40853 -1.6553,-2.58785 -4.52673,-6.45108 -6.38095,-8.58421 l -3.36994,-3.87804 v 4.13366 c 0,3.80945 -0.15637,4.06082 -1.9761,3.20573 -3.59771,-1.69056 -4.72337,-0.98964 -10.33115,6.43597 -3.05867,4.05019 -8.20112,10.29787 -11.42988,13.88215 -3.22876,3.58428 -5.87047,6.92643 -5.87047,7.42692 0,0.59838 12.23633,0.90867 35.73332,0.90867 29.60657,0 35.73331,-0.20971 35.73331,-1.22906 0,-0.67666 -4.824,-5.23754 -10.71999,-10.13368 l -10.72,-8.90111 0.006,-9.36506 0.006,-9.36507 2.96913,-1.48293 c 9.45494,-4.72266 9.16191,-16.25387 -0.53639,-21.13575 -2.4326,-1.22451 -4.13657,-1.84659 -5.93628,-1.88212 z m -142.60823,9.30029 c -1.3769,0.0188 -2.73848,0.43441 -3.99807,1.22731 -1.80482,1.13613 -3.24091,1.39932 -4.82161,0.88591 -2.37332,-0.77085 -8.43281,0.60431 -8.43281,1.91364 0,0.4138 1.57023,0.52909 3.48958,0.25562 2.81334,-0.40086 3.7511,-0.12964 4.83955,1.40064 1.9678,2.76659 4.85137,2.39322 6.11574,-0.79137 0.85559,-2.15494 1.65764,-2.68924 4.03197,-2.68924 3.75786,0 3.86377,-1.4216 0.15553,-2.0887 -0.45863,-0.0826 -0.92092,-0.12008 -1.37988,-0.11381 z m 58.49735,20.13078 h 8.01407 8.01407 l -1.00499,2.53517 c -0.55361,1.39438 -1.57647,5.52908 -2.27122,9.18824 l -1.26223,6.65307 -3.69697,0.27312 -3.69497,0.27313 -0.74578,-5.65161 c -0.40973,-3.10811 -1.33086,-7.366 -2.04787,-9.46136 z m -67.21533,2.69975 c -4.81132,0.11821 -9.09517,2.06646 -13.98026,6.14008 -6.51465,5.43251 -8.37084,10.73867 -5.81862,16.63267 1.19973,2.77062 3.84202,2.24605 4.75381,-0.94369 0.74612,-2.61016 3.23955,-3.9113 7.49561,-3.9113 4.38158,0 4.75797,1.74981 1.65905,7.69305 -1.45527,2.79096 -2.6441,5.22657 -2.6441,5.4135 0,1.1799 4.8777,5e-5 6.93529,-1.67728 l 2.47462,-2.01693 1.54538,2.01693 c 0.84964,1.10931 2.47069,2.01693 3.60324,2.01693 1.89785,0 2.01545,-0.42137 1.50351,-5.37848 l -0.55435,-5.37848 h 4.01203 c 3.43497,0 4.16766,0.35468 5.0908,2.46514 0.72802,1.66448 0.75036,3.41136 0.0698,5.37848 -0.97761,2.82549 -0.91828,2.91334 1.98408,2.91334 3.20781,0 4.98512,-2.41612 4.98512,-6.78087 0,-1.20047 0.20601,-2.18326 0.45863,-2.18326 0.25261,0 2.56687,1.24872 5.14264,2.77503 3.59994,2.13321 4.54017,3.16996 4.06586,4.48207 -0.51514,1.42508 -0.10005,1.70703 2.5145,1.70703 2.98639,0 3.13264,-0.17056 3.13264,-3.6802 0,-2.61788 -0.73684,-4.44872 -2.55238,-6.34317 -1.44869,-1.51166 -2.55238,-3.7966 -2.55238,-5.28394 0,-3.00465 0.6148,-3.22059 3.24232,-1.13277 3.2371,2.57218 2.95824,0.82952 -0.61217,-3.82551 -7.02343,-9.15703 -13.66735,-12.28053 -22.12195,-10.39629 -2.59711,0.57878 -5.33249,0.61861 -7.37199,0.10504 -1.94111,-0.48879 -3.75409,-0.76282 -5.49161,-0.80712 -0.32578,-0.008 -0.64834,-0.008 -0.96911,0 z m 216.0051,14.9554 -2.13762,2.01517 c -1.83726,1.73152 -2.77799,1.92886 -6.70997,1.41116 -6.42286,-0.84568 -9.41057,0.58227 -13.20258,6.3099 -1.77698,2.68404 -3.07956,4.8795 -2.89535,4.8795 0.18421,0 1.69193,-1.61831 3.35,-3.5979 l 3.01499,-3.59966 0.5683,3.72747 c 0.31326,2.05065 1.17979,4.06764 1.92426,4.48206 2.45178,1.3648 3.23437,0.81278 1.38786,-0.9787 -3.01354,-2.92372 -1.36881,-4.47583 4.51252,-4.25796 4.88584,0.18098 5.15027,0.31773 5.15063,2.65597 3e-4,1.91483 0.48435,2.46514 2.16752,2.46514 1.78266,0 1.94753,-0.2309 0.93122,-1.3061 -1.84509,-1.95202 2.56139,-8.55445 5.70896,-8.55445 3.65737,0 3.57381,-1.23206 -0.23929,-3.52612 z m -17.47782,24.62336 c -4.64735,0.0422 -9.16515,0.78734 -12.57047,2.32156 -11.75816,5.29748 -16.09424,18.11469 -9.21449,27.24256 2.8606,3.79537 8.91764,6.85986 18.1877,9.204 8.96151,2.26612 12.07028,5.91301 8.22345,9.6452 -2.68532,2.60529 -9.73452,2.14242 -17.416,-1.14327 -5.84257,-2.49911 -6.81601,-2.66948 -9.56345,-1.67027 -3.56073,1.29499 -5.02101,3.30853 -5.02101,6.91568 0,4.79076 7.6299,9.10222 19.39809,10.96181 16.97718,2.68271 31.17088,-5.9431 30.94361,-18.80368 -0.17605,-9.96136 -5.57864,-15.12169 -19.70716,-18.82643 -8.74402,-2.29282 -11.23645,-3.89858 -11.23645,-7.23433 0,-2.1603 0.67662,-2.93729 3.65109,-4.18268 3.52943,-1.47777 3.86546,-1.45862 9.95428,0.54625 9.44538,3.1101 12.34659,3.32352 14.87958,1.09951 3.2118,-2.82002 2.86896,-7.65496 -0.76971,-10.84976 -3.89212,-3.41735 -11.99347,-5.29652 -19.73906,-5.22615 z m -242.85094,3.43858 c -8.70406,0 -9.13273,1.43596 -9.13273,30.47456 v 24.28895 l 2.50451,2.20076 c 3.40947,2.99358 8.93568,2.99358 12.34515,0 l 2.50652,-2.20076 v -25.52328 -25.52326 l -2.68998,-1.85936 c -1.47953,-1.02184 -3.97056,-1.85761 -5.53347,-1.85761 z m 94.09108,0.0525 c -1.99503,-0.005 -4.05129,0.70057 -5.92232,2.11672 l -2.86345,2.1675 0.19143,13.51974 c 0.10549,7.43551 -0.18059,13.51798 -0.63411,13.51798 -0.45351,0 -3.52573,-2.88841 -6.82762,-6.42022 -9.40854,-10.06374 -22.98645,-23.16323 -24.9834,-24.10161 -4.08676,-1.92035 -10.20053,-0.23333 -12.04604,3.32304 -0.74071,1.42739 -1.13262,10.5153 -1.13262,26.22359 v 24.03859 l 2.68997,2.36183 c 3.5902,3.15226 8.33708,3.17435 11.67914,0.0525 2.34774,-2.19303 2.50287,-3.03508 2.98708,-16.34029 l 0.51047,-14.02571 7.14666,7.24834 c 3.93067,3.98682 10.36267,10.57404 14.29333,14.6385 3.93067,4.06445 8.24224,8.15503 9.58139,9.09019 3.39216,2.36885 7.84935,2.16507 10.88351,-0.49898 l 2.50652,-2.20076 v -25.18187 -25.18011 l -2.50652,-2.20077 c -1.62404,-1.42593 -3.55839,-2.14264 -5.55342,-2.14823 z m 67.16746,0.84388 c -17.79255,0 -20.92089,0.2071 -22.52874,1.48468 -1.72612,1.37157 -1.86642,3.42368 -1.86642,27.20055 0,23.37523 0.16276,25.84291 1.78666,27.085 0.98267,0.75162 2.47581,1.58919 3.3181,1.8611 0.84228,0.27193 9.73047,0.52661 19.75303,0.56551 20.96978,0.0814 24.26908,-0.64651 26.19977,-5.78291 1.29075,-3.43397 -0.56084,-7.72593 -4.03794,-9.35982 -1.08032,-0.50764 -8.42702,-0.92268 -16.32527,-0.92268 h -14.35912 v -3.13745 -3.13744 h 10.15966 c 5.58882,0 11.30182,-0.45498 12.6941,-1.01196 5.31819,-2.12755 5.81021,-9.0469 0.88536,-12.44825 -2.19466,-1.51573 -4.14861,-1.77882 -13.22451,-1.77882 h -10.6502 l 0.32303,-2.46514 0.32303,-2.46514 14.9055,-0.4482 c 15.78791,-0.4747 17.57252,-0.94836 19.3961,-5.15963 1.13955,-2.6317 -1.12172,-7.74461 -4.02998,-9.1112 -1.28173,-0.60228 -9.87447,-0.9682 -22.72216,-0.9682 z m -74.22041,69.8187 c -2.40706,-0.0366 -4.93424,0.6972 -7.19451,2.3671 -5.57015,4.11524 -5.48527,11.52112 0.16949,14.70153 7.95513,4.47422 17.03315,0.53602 17.03315,-7.39016 0,-5.78703 -4.71257,-9.59811 -10.00813,-9.67847 z m -49.61785,0.12781 c -1.29143,-0.0653 -2.68223,0.18598 -3.12069,0.80887 -0.5262,0.74755 4.16238,12.20769 6.69202,16.3578 1.70431,2.79607 3.84626,1.81166 6.68803,-3.07442 l 2.73783,-4.70617 2.45068,4.70617 c 3.62387,6.95435 5.4713,6.43325 9.42587,-2.65947 4.18468,-9.62183 4.32257,-11.01084 1.08874,-11.01084 -2.05852,0 -2.83489,0.74301 -4.2194,4.03386 -0.93342,2.21863 -2.06545,3.96088 -2.51449,3.87104 -0.44905,-0.0898 -1.5474,-1.90508 -2.44072,-4.03386 -2.44624,-5.82939 -5.2199,-5.71274 -8.15963,0.34316 l -2.30712,4.74994 -1.85845,-3.58566 c -1.02253,-1.97211 -1.89257,-4.08988 -1.93422,-4.70617 -0.0437,-0.64725 -1.23705,-1.02901 -2.52845,-1.09425 z m 79.79974,0.12431 c -0.39832,1.9e-4 -0.80791,0.0116 -1.22833,0.0332 l -5.16258,0.26437 -0.29114,9.18824 -0.29112,9.18824 h 2.58826 c 2.19503,0 2.58828,-0.40843 2.58828,-2.68924 0,-1.59219 0.53372,-2.68924 1.31009,-2.68924 0.72122,0 2.12558,1.21016 3.12068,2.68924 1.35846,2.01916 2.55928,2.68924 4.81562,2.68924 3.57403,0 3.64158,-0.28198 0.89135,-3.67319 -1.91966,-2.36704 -1.96634,-2.73283 -0.51048,-4.0111 0.8813,-0.77379 1.60321,-2.76093 1.60321,-4.41553 0,-4.19248 -3.45896,-6.57712 -9.43384,-6.57429 z m 26.79002,0.29763 c -2.50956,0 -2.55895,0.13508 -2.85149,7.9977 -0.16364,4.39822 -0.0542,8.54882 0.24129,9.225 0.40571,0.92828 2.47845,1.16607 8.46472,0.96819 7.14771,-0.23626 7.92833,-0.43904 7.92833,-2.05544 0,-1.52886 -0.78315,-1.83249 -5.31813,-2.06245 l -5.31811,-0.26963 -0.29712,-6.90168 c -0.28833,-6.69454 -0.3737,-6.90169 -2.84949,-6.90169 z m 27.05523,0 -0.29911,7.9977 c -0.16365,4.39822 -0.0631,8.53293 0.22333,9.18823 0.76865,1.75875 10.74112,1.55351 13.88654,-0.28538 3.96857,-2.32011 5.07684,-3.98743 5.07684,-7.64403 0,-2.48701 -0.79723,-4.1846 -2.96714,-6.31691 -2.75346,-2.70574 -3.43207,-2.91597 -9.4438,-2.92735 z m 7.25234,4.51884 c 0.60276,-0.0217 1.41481,0.23717 2.50253,0.71083 2.81762,1.22693 3.88808,5.30733 1.93423,7.3744 -0.67085,0.70973 -2.31207,1.29034 -3.64712,1.29034 -2.22835,0 -2.42675,-0.36353 -2.42675,-4.42954 0,-3.4897 0.31105,-4.89831 1.63711,-4.94603 z m -91.25555,0.41144 c 3.75426,0 5.78284,3.37218 4.04393,6.7231 -0.84048,1.61964 -1.96209,2.24103 -4.04393,2.24103 -3.58972,0 -5.33008,-1.46389 -5.33008,-4.48207 0,-3.01817 1.74036,-4.48206 5.33008,-4.48206 z m 30.98748,0 c 1.95124,0 2.54009,0.40364 2.28718,1.56872 -0.18729,0.8628 -1.37045,1.69832 -2.62815,1.85586 -1.73679,0.21756 -2.28518,-0.15969 -2.28518,-1.56872 0,-1.39534 0.65012,-1.85586 2.62615,-1.85586 z m -130.24513,1.79282 v 2.24104 2.24103 h 14.67817 c 12.11775,0 14.91166,-0.24647 16.0142,-1.4129 2.32358,-2.45822 -0.75436,-3.04063 -16.1438,-3.05515 z m 244.87888,0.14183 c -11.0635,-0.0508 -12.79545,0.56431 -11.74892,2.95886 0.54082,1.23742 2.77024,1.39408 16.72606,1.18004 15.32765,-0.23509 16.10193,-0.33309 16.10193,-2.03969 0,-1.7046 -0.77572,-1.80537 -15.74698,-2.04144 -1.98044,-0.0312 -3.75158,-0.0506 -5.33209,-0.0577 z">
        </path>
    </g>
</svg>