<svg xmlns="http://www.w3.org/2000/svg" width="64" height="64" viewBox="100 20 350 350">
    <path style="fill:#fff;stroke-width:.956657"
        d="M256.209 64.007c-10.316.08-20.732.823-27.81 2.203-13.835 2.697-25.66 6.402-39.09 12.247-13.273 5.775-17.988 8.544-30.346 17.821-25.753 19.333-44.958 48.936-50.66 78.09-3.128 15.985-1.76 45.075 2.308 49.078 3.91 3.849 11.267-.597 9.99-6.037-.348-1.486-1.075-7.04-1.615-12.34-2.228-21.887 3.908-47.96 15.56-66.11 25.903-40.35 71.609-64.502 122.123-64.535 21.876-.014 46.011 5.19 63.345 13.657 28.972 14.15 51.828 35.49 63.367 59.167 5.543 11.372 7.411 16.652 9.713 27.443 1.877 8.801 2.108 27.526.459 37.261-1.33 7.848-.687 11.066 2.408 12.072 5.037 1.636 6.97-.507 8.818-9.778 4.275-21.435.811-48.34-8.766-68.11-5.13-10.59-16.5-26.827-24.784-35.391-21.45-22.177-52.943-38.302-87.82-44.96-6.67-1.274-16.885-1.857-27.2-1.778m1.22 15.789c-1.076 0-2.603 1.798-4.17 4.907-1.813 3.6-3.159 5.06-5.048 5.477-3.291.725-3.302 1.972-.024 2.694 1.404.31 2.555.822 2.56 1.139.005.316 1.394 2.692 3.085 5.28 3.442 5.27 5.66 6.225 4.68 2.017-.345-1.48-.898-3.84-1.23-5.246-.584-2.467-.44-2.576 4.18-3.132 4.157-.5 5.034-.312 6.695 1.436 1.406 1.48 1.937 1.656 2.01.667.055-.74.25-2.684.433-4.321l.33-2.976-2.3 1.9c-2.114 1.743-2.698 1.811-7.133.83-5.238-1.157-5.155-.93-3.041-8.326.522-1.826.295-2.346-1.027-2.346m-43.544 13.495c-1.696.024-3.443.5-4.489 1.418-1.246 1.095-1.964 1.208-2.83.449-1.446-1.271-5.357-1.316-7.963-.091-3.077 1.445-2.324 2.595 1.356 2.07 2.534-.36 3.79-.026 5.262 1.401 2.543 2.467 4.266 2.367 6.305-.366 1.17-1.568 2.593-2.24 4.742-2.24 2.614 0 2.882-.2 1.8-1.345-.842-.891-2.487-1.32-4.183-1.296m89.854 3.537c-4.313 0-9.099 2.863-9.099 5.443 0 1.232-.713 1.728-2.48 1.728-2.734 0-6.041 2.361-5.127 3.66.32.454 9.285.822 19.986.822h19.406l-.323-2.376c-.18-1.323-1.577-3.194-3.153-4.223-2.409-1.572-3.281-1.696-5.87-.838-2.324.77-3.22.749-3.807-.09-1.565-2.238-5.926-4.126-9.533-4.126m-46.202 11.751c-1.326.014-2.717.059-4.196.132-10.533.518-17.884 2.63-28.126 8.078-8.637 4.594-12.435 7.8-18.291 15.447-8.225 10.74-11.316 19.313-11.316 31.375 0 8.65 1.51 14.7 5.597 22.41 5.47 10.318 12.677 18.383 21.633 24.207 10.462 6.802 18.397 13.532 20.838 17.672 2.181 3.7 4.982 13.244 5.005 17.06.013 2.144-.382 2.465-3.047 2.465h-3.063v7.023c0 3.862.306 7.29.68 7.62.375.328 6.807.596 14.294.596h13.613v-15.239h-6.407l.63-4.706c1.662-12.407 6.65-20.162 17.518-27.234 25.181-16.386 35.266-31.328 35.205-52.156-.044-14.8-5.355-26.09-17.631-37.476-6.69-6.205-9.442-8.022-17.357-11.454-10.248-4.445-16.301-5.913-25.58-5.82m-74.023.392c-4.924 0-8.037 2.18-8.904 6.235-.502 2.35-2.826 4.457-12.399 11.24-12.506 8.862-12.506 8.861-17.29 21.477-2.453 6.469-3.7 8.326-8.263 12.29-5.89 5.115-10.475 10.583-10.475 12.488 0 .674 1.028 1.208 2.297 1.196 1.593-.016 3.335-1.368 5.683-4.409 3.934-5.093 8.594-7.368 16.262-7.94 6.955-.518 11.491 1.063 11.491 4.006 0 3.26 4.314 6.573 8.557 6.573 6.956 0 10.309-7.72 5.272-12.142-2.52-2.212-5.487-2.66-9.19-1.389-1.966.675-7.702-.654-7.702-1.784 0-.318 1.556-1.54 3.458-2.715 1.902-1.176 6.075-3.929 9.276-6.116 4.988-3.408 6.097-3.824 7.76-2.913 2.93 1.607 5.847 1.279 7.114-.8 1.978-3.245.534-4.412-5.456-4.412-5.335 0-5.767.2-16.622 7.715-18.058 12.501-19.994 12.52-14.523.132 2.232-5.052 4.534-9.692 5.117-10.309s5.627-4.35 11.209-8.295c8.429-5.96 10.472-7.023 12.06-6.277 5.878 2.762 13.297-.85 13.254-6.455-.035-4.572-3.084-7.396-7.986-7.396m77.466 4.567 3.644 3.074c11.66 9.841 18.54 33.063 15.838 53.468-1.991 15.042-6.373 26.638-13.73 36.333-1.777 2.34-3.519 4.257-3.87 4.258-.35 0 1.083-4.376 3.183-9.726 6.862-17.476 7.659-21.837 7.566-41.368-.078-16.31-.269-18.02-2.85-25.548-1.521-4.437-4.344-10.863-6.273-14.28zm-9.718 1.43a.24.24 0 0 1 .121.056c.217.19-.934 2.93-2.558 6.09-11.75 22.859-11.96 48.83-.644 79.563 2.056 5.584 3.559 10.31 3.34 10.503-.8.702-7.797-8.302-11.492-14.787-11.556-20.28-12.17-46.449-1.547-65.958 3.342-6.138 11.313-15.727 12.78-15.467m90.503 1.012a4.12 4.12 0 0 0-2.588 1.035c-1.255 1.101-1.399 1.87-.598 3.183 1.277 2.096 4.325 2.249 6.157.31 2.106-2.228-.307-4.63-2.97-4.528m8.782 2.843c-.62-.066-1.223.257-1.856.926-.991 1.049-.269 2.993 3.728 10.033 8.483 14.936 8.81 15.64 6.76 14.556-3.014-1.596-11.928-7.125-12.636-7.837-7.1-7.14-9.69-7.971-14.5-4.648-3.8 2.624-3.8 8.003 0 10.627 3.35 2.314 6.512 2.363 9.714.15 2.44-1.684 2.519-1.681 6.058.225 10.048 5.412 18.443 11.806 21.343 16.256 2.673 4.103 6.84 17.179 5.772 18.116-.22.193-1.994-.474-3.942-1.483-2.502-1.296-3.899-2.884-4.758-5.402-.669-1.96-2.09-3.974-3.156-4.475-8.12-3.815-16.27 4.658-10.062 10.46 2.375 2.22 7.743 2.829 9.71 1.101.8-.701 2.985.065 7.805 2.738 7.804 4.328 12.234 8.446 13.927 12.95.829 2.205 1.824 3.214 3.17 3.214 3.668 0 2.059-5.149-4.594-14.697-1.338-1.92-3.245-6.962-4.24-11.205-1.475-6.3-3.519-10.589-11.15-23.401-5.139-8.628-10.631-18.385-12.204-21.684-2.07-4.345-3.524-6.374-4.889-6.52m-68.392 4.874c.26-.034 1.49.938 3.697 2.99 13.275 12.35 17.92 34.404 11.364 53.955-1.488 4.438-4.032 9.883-5.653 12.102s-5.12 5.85-7.779 8.068l-4.833 4.034 4.291-4.405c10.137-10.405 14.806-22.416 14.838-38.175.028-13.942-3.665-24.185-12.114-33.616-2.87-3.203-4.144-4.909-3.81-4.953m-51.873.023c.58 0-.542 1.951-2.492 4.335-7.861 9.607-12.731 22.508-12.768 33.822-.04 11.948 3.97 22.956 12.708 34.9 2.885 3.945 5.594 7.676 6.02 8.293 1.243 1.8.447 1.367-5.773-3.138-10.71-7.756-16.744-15.96-19.554-26.596-3.07-11.621-1.314-25.71 4.363-35.03 2.726-4.475 15.502-16.586 17.496-16.586m-77.867 54.681c-2.211-.059-5.014.503-5.945 1.494-1.256 1.338-1.134 1.436 1.16.935 2.995-.654 4.34-.045 6.001 2.726 1.597 2.663 3.755 2.552 5.886-.305 1.397-1.871 2.293-2.224 4.619-1.815 2.109.37 2.885.155 2.885-.799 0-1.802-4.863-2.708-8.343-1.554-1.697.562-3.115.618-3.454.136-.368-.523-1.483-.782-2.81-.818m215.223 12.102-.51 8.752-.51 8.753-3.833-2.399c-2.108-1.32-4.024-2.233-4.256-2.03-1.766 1.553-16.707 30.755-16.26 31.78.452 1.032 2.82 1.31 11.183 1.31h10.613v10.16c0 5.587.322 10.442.716 10.788.393.345 1.427.508 2.297.362 1.3-.219 1.632-2.134 1.868-10.788l.287-10.523h11.6c12.826 0 13.897-.486 11.089-5.042-.874-1.417-4.103-7.014-7.177-12.438-3.074-5.423-8.18-14.096-11.348-19.273zm-203.502.809c-.736.042-1.44.195-1.945.453-1.628.833-1.581.928.481.953 1.259.015 2.862.833 3.563 1.819 1.5 2.11 4.681 2.368 5.52.448.339-.775 1.866-1.344 3.603-1.344 1.9 0 2.761-.358 2.331-.969-.375-.533-2.584-.85-4.91-.707-2.324.144-5.252-.05-6.504-.43-.636-.194-1.404-.265-2.14-.223m-20.687 5.182c-.457-.156-3.329 3.071-6.38 7.172-3.052 4.1-7.019 9.169-8.816 11.264l-3.268 3.81h3.66c2.014 0 3.664.25 3.664.553 0 .711-6.338 8.363-12.162 14.686l-4.542 4.93 5.724.449 5.723.448-2.732 3.314c-1.502 1.823-4.94 5.756-7.64 8.74l-4.91 5.426h27.685v2.69c0 2.39.34 2.688 3.063 2.688s3.063-.298 3.063-2.689c0-2.688.002-2.69 6.1-2.69h6.1l-1.091-2.464c-.6-1.356-1.168-5.39-1.26-8.964-.14-5.407.104-6.5 1.455-6.5.894 0 3.114-1.624 4.932-3.61l3.304-3.61-3.998-4.233c-2.199-2.328-4.79-5.317-5.76-6.641l-1.764-2.406 3.601-.283 3.604-.282-8.262-10.757c-4.543-5.916-8.635-10.884-9.093-11.04m189.558 2.676c-1.8-.036-3.695.514-6.508 1.635-3.473 1.384-4.818 2.612-6.483 5.916-3.419 6.786-.54 13.126 7.35 16.182l4.092 1.587-.287 9.377c-.16 5.224-.74 9.51-1.308 9.675-.562.163-2.377-1.82-4.032-4.409-1.655-2.587-4.527-6.45-6.381-8.584l-3.37-3.878v4.134c0 3.81-.156 4.06-1.976 3.206-3.598-1.69-4.723-.99-10.331 6.436-3.059 4.05-8.201 10.297-11.43 13.882s-5.87 6.926-5.87 7.427c0 .598 12.236.908 35.733.908 29.606 0 35.733-.21 35.733-1.229 0-.676-4.824-5.237-10.72-10.133l-10.72-8.902.006-9.365.006-9.365 2.97-1.483c9.454-4.722 9.161-16.253-.537-21.135-2.433-1.225-4.137-1.847-5.937-1.882m-142.608 9.3c-1.377.019-2.738.434-3.998 1.227-1.805 1.136-3.24 1.4-4.821.886-2.374-.77-8.433.604-8.433 1.914 0 .413 1.57.529 3.49.255 2.813-.4 3.75-.13 4.839 1.401 1.968 2.767 4.851 2.393 6.116-.791.855-2.155 1.657-2.69 4.032-2.69 3.757 0 3.863-1.421.155-2.088a7 7 0 0 0-1.38-.114m58.498 20.13h16.028l-1.005 2.536c-.554 1.394-1.577 5.529-2.272 9.188l-1.262 6.653-3.697.273-3.695.273-.745-5.651c-.41-3.108-1.331-7.366-2.048-9.462zm-67.216 2.7c-4.811.119-9.095 2.067-13.98 6.14-6.515 5.433-8.37 10.74-5.819 16.633 1.2 2.77 3.842 2.246 4.754-.944.746-2.61 3.24-3.91 7.496-3.91 4.381 0 4.758 1.749 1.659 7.692-1.455 2.791-2.644 5.227-2.644 5.414 0 1.18 4.877 0 6.935-1.678l2.475-2.017 1.545 2.017c.85 1.11 2.47 2.017 3.603 2.017 1.898 0 2.016-.421 1.504-5.378l-.555-5.379h4.012c3.435 0 4.168.355 5.091 2.466.728 1.664.75 3.41.07 5.378-.978 2.825-.918 2.913 1.984 2.913 3.208 0 4.985-2.416 4.985-6.78 0-1.201.206-2.184.459-2.184.252 0 2.567 1.249 5.143 2.775 3.6 2.133 4.54 3.17 4.065 4.482-.515 1.425-.1 1.707 2.515 1.707 2.986 0 3.133-.17 3.133-3.68 0-2.618-.737-4.449-2.553-6.343-1.449-1.512-2.552-3.797-2.552-5.284 0-3.005.615-3.22 3.242-1.133 3.237 2.572 2.958.83-.612-3.825-7.024-9.157-13.667-12.28-22.122-10.397-2.597.58-5.333.62-7.372.105-1.941-.488-3.754-.762-5.492-.807a20 20 0 0 0-.969 0m216.005 14.956-2.137 2.015c-1.838 1.731-2.778 1.929-6.71 1.411-6.423-.846-9.41.582-13.203 6.31-1.777 2.684-3.08 4.88-2.895 4.88.184 0 1.692-1.619 3.35-3.598l3.015-3.6.568 3.727c.313 2.051 1.18 4.068 1.924 4.482 2.452 1.365 3.235.813 1.388-.978-3.013-2.924-1.369-4.476 4.513-4.258 4.886.18 5.15.318 5.15 2.656 0 1.915.485 2.465 2.168 2.465 1.783 0 1.947-.231.931-1.306-1.845-1.952 2.562-8.555 5.71-8.555 3.656 0 3.573-1.232-.24-3.526zm-17.477 24.623c-4.648.042-9.166.787-12.571 2.322-11.758 5.297-16.094 18.114-9.214 27.242 2.86 3.796 8.917 6.86 18.187 9.204 8.962 2.266 12.07 5.913 8.224 9.645-2.686 2.606-9.735 2.143-17.416-1.143-5.843-2.499-6.816-2.67-9.564-1.67-3.56 1.295-5.02 3.308-5.02 6.916 0 4.79 7.63 9.102 19.397 10.961 16.978 2.683 31.171-5.943 30.944-18.803-.176-9.962-5.579-15.122-19.707-18.827-8.744-2.293-11.237-3.898-11.237-7.234 0-2.16.677-2.937 3.651-4.183 3.53-1.477 3.866-1.458 9.955.547 9.445 3.11 12.346 3.323 14.88 1.099 3.211-2.82 2.868-7.655-.77-10.85-3.893-3.417-11.994-5.296-19.74-5.226m-242.851 3.439c-8.704 0-9.133 1.436-9.133 30.474v24.29l2.504 2.2c3.41 2.994 8.936 2.994 12.346 0l2.506-2.2v-51.047l-2.69-1.86c-1.48-1.022-3.97-1.857-5.533-1.857m94.09.052c-1.994-.005-4.05.7-5.922 2.117l-2.863 2.167.191 13.52c.106 7.436-.18 13.518-.634 13.518-.453 0-3.526-2.888-6.827-6.42-9.409-10.064-22.987-23.163-24.984-24.102-4.087-1.92-10.2-.233-12.046 3.323-.74 1.428-1.132 10.516-1.132 26.224v24.039l2.69 2.361c3.59 3.153 8.337 3.175 11.679.053 2.347-2.193 2.503-3.035 2.987-16.34l.51-14.026 7.147 7.248a2572 2572 0 0 1 14.293 14.639c3.93 4.064 8.242 8.155 9.582 9.09 3.392 2.369 7.849 2.165 10.883-.5l2.507-2.2V278.72l-2.507-2.2c-1.624-1.427-3.558-2.143-5.553-2.149m67.168.844c-17.792 0-20.92.207-22.529 1.485-1.726 1.371-1.866 3.423-1.866 27.2 0 23.376.163 25.843 1.787 27.085.982.752 2.475 1.59 3.318 1.861.842.272 9.73.527 19.753.566 20.97.081 24.269-.647 26.2-5.783 1.29-3.434-.561-7.726-4.038-9.36-1.08-.507-8.427-.922-16.326-.922h-14.359v-6.275h10.16c5.589 0 11.302-.455 12.694-1.012 5.318-2.128 5.81-9.047.885-12.449-2.194-1.515-4.148-1.778-13.224-1.778h-10.65l.323-2.466.323-2.465 14.905-.448c15.788-.475 17.573-.948 19.396-5.16 1.14-2.631-1.121-7.744-4.03-9.11-1.281-.603-9.874-.969-22.722-.969m-74.22 69.819c-2.407-.037-4.935.697-7.195 2.367-5.57 4.115-5.485 11.521.17 14.701 7.955 4.475 17.033.536 17.033-7.39 0-5.787-4.713-9.598-10.008-9.678m-49.618.128c-1.292-.066-2.682.186-3.12.808-.527.748 4.162 12.208 6.691 16.358 1.704 2.796 3.846 1.812 6.688-3.074l2.738-4.706 2.45 4.706c3.625 6.954 5.472 6.433 9.427-2.66 4.184-9.621 4.322-11.01 1.088-11.01-2.058 0-2.835.743-4.22 4.033-.932 2.219-2.065 3.961-2.514 3.871s-1.547-1.905-2.44-4.033c-2.447-5.83-5.22-5.713-8.16.343l-2.307 4.75-1.858-3.586c-1.023-1.972-1.893-4.09-1.935-4.706-.043-.647-1.237-1.03-2.528-1.094m79.8.124q-.598 0-1.229.033l-5.162.264-.291 9.189-.292 9.188h2.589c2.195 0 2.588-.408 2.588-2.69 0-1.591.534-2.689 1.31-2.689.721 0 2.126 1.21 3.12 2.69 1.36 2.019 2.56 2.689 4.816 2.689 3.574 0 3.642-.282.892-3.673-1.92-2.367-1.967-2.733-.51-4.011.88-.774 1.602-2.761 1.602-4.416 0-4.192-3.459-6.577-9.433-6.574m26.79.298c-2.51 0-2.56.135-2.852 7.997-.164 4.398-.054 8.55.241 9.225.406.929 2.479 1.166 8.465.968 7.148-.236 7.928-.439 7.928-2.055 0-1.529-.783-1.832-5.318-2.062l-5.318-.27-.297-6.902c-.288-6.694-.374-6.901-2.85-6.901m27.055 0-.3 7.997c-.163 4.398-.062 8.533.224 9.188.769 1.76 10.741 1.554 13.887-.285 3.968-2.32 5.076-3.987 5.076-7.644 0-2.487-.797-4.185-2.967-6.317-2.753-2.706-3.432-2.916-9.443-2.927zm7.252 4.518c.603-.021 1.415.238 2.503.711 2.817 1.227 3.888 5.308 1.934 7.375-.67.71-2.312 1.29-3.647 1.29-2.229 0-2.427-.364-2.427-4.43 0-3.49.311-4.898 1.637-4.946m-91.255.412c3.754 0 5.782 3.372 4.044 6.723-.84 1.62-1.963 2.241-4.044 2.241-3.59 0-5.33-1.464-5.33-4.482s1.74-4.482 5.33-4.482m30.987 0c1.951 0 2.54.403 2.287 1.569-.187.862-1.37 1.698-2.628 1.855-1.737.218-2.285-.16-2.285-1.568 0-1.396.65-1.856 2.626-1.856m-130.245 1.793v4.482h14.678c12.118 0 14.912-.247 16.014-1.413 2.324-2.458-.754-3.04-16.143-3.055zm244.879.141c-11.064-.05-12.796.565-11.75 2.96.542 1.237 2.771 1.393 16.727 1.18 15.328-.236 16.102-.334 16.102-2.04s-.776-1.806-15.747-2.042a478 478 0 0 0-5.332-.057" />
</svg>