<?xml version="1.0" encoding="UTF-8" standalone="no"?>
<svg
   xmlns:dc="http://purl.org/dc/elements/1.1/"
   xmlns:cc="http://creativecommons.org/ns#"
   xmlns:rdf="http://www.w3.org/1999/02/22-rdf-syntax-ns#"
   xmlns:svg="http://www.w3.org/2000/svg"
   xmlns="http://www.w3.org/2000/svg"
   xmlns:sodipodi="http://sodipodi.sourceforge.net/DTD/sodipodi-0.dtd"
   xmlns:inkscape="http://www.inkscape.org/namespaces/inkscape"
   sodipodi:docname="favicon-light.svg"
   inkscape:version="1.0 (4035a4fb49, 2020-05-01)"
   id="svg8"
   version="1.1"
   viewBox="0 0 16.933704 16.933178"
   height="16.933178mm"
   width="16.933704mm">
  <defs
     id="defs2" />
  <sodipodi:namedview
     inkscape:window-maximized="0"
     inkscape:window-y="1132"
     inkscape:window-x="52"
     inkscape:window-height="1080"
     inkscape:window-width="1218"
     fit-margin-bottom="0"
     fit-margin-right="0"
     fit-margin-left="0"
     fit-margin-top="0"
     showgrid="false"
     inkscape:document-rotation="0"
     inkscape:current-layer="layer1"
     inkscape:document-units="mm"
     inkscape:cy="34.923338"
     inkscape:cx="24.474389"
     inkscape:zoom="11.2"
     inkscape:pageshadow="2"
     inkscape:pageopacity="0.0"
     borderopacity="1.0"
     bordercolor="#666666"
     pagecolor="#ffffff"
     id="base" />
  <metadata
     id="metadata5">
    <rdf:RDF>
      <cc:Work
         rdf:about="">
        <dc:format>image/svg+xml</dc:format>
        <dc:type
           rdf:resource="http://purl.org/dc/dcmitype/StillImage" />
        <dc:title></dc:title>
      </cc:Work>
    </rdf:RDF>
  </metadata>
  <g
     transform="translate(-90.562912,-77.711983)"
     id="layer1"
     inkscape:groupmode="layer"
     inkscape:label="Capa 1">
    <path
       style="fill:#000000;stroke-width:0.956661"
       d="m 99.008222,77.711983 c -0.582003,0.005 -1.170005,0.047 -1.570007,0.125 -0.780003,0.152001 -1.448006,0.361002 -2.206009,0.691003 -0.749003,0.326001 -1.015004,0.482002 -1.713007,1.006004 -1.453006,1.091004 -2.53701,2.762011 -2.860011,4.408018 -0.176001,0.902004 -0.098,2.54401 0.131,2.770011 0.221001,0.217001 0.636003,-0.034 0.564002,-0.340001 a 9.0270367,9.0270367 0 0 1 -0.091,-0.697003 c -0.126,-1.236005 0.220001,-2.707011 0.878004,-3.732015 1.462006,-2.277009 4.042016,-3.640015 6.893028,-3.643015 1.235008,0 2.597008,0.293001 3.576018,0.771003 1.635,0.799003 2.92501,2.004008 3.57701,3.340014 0.312,0.642002 0.418,0.940003 0.548,1.549006 0.106,0.497002 0.119,1.554006 0.026,2.103009 -0.075,0.443001 -0.039,0.625002 0.136,0.682002 0.28401,0.092 0.39301,-0.03 0.49701,-0.552002 0.242,-1.210005 0.046,-2.729011 -0.49401,-3.845016 -0.29,-0.598002 -0.932,-1.514006 -1.4,-1.997008 -1.21001,-1.252005 -2.98801,-2.162008 -4.95602,-2.53801 -0.377,-0.072 -0.953006,-0.105 -1.536008,-0.1 z m 0.07,0.892003 c -0.061,0 -0.148001,0.101001 -0.236001,0.277001 -0.102001,0.203001 -0.178001,0.285001 -0.285002,0.309002 -0.186,0.04 -0.186,0.111 -0.001,0.152 0.079,0.017 0.144001,0.046 0.144001,0.064 a 2.0000081,2.0000081 0 0 0 0.174001,0.298001 c 0.195001,0.298002 0.320001,0.352002 0.264001,0.114001 l -0.069,-0.296001 c -0.033,-0.140001 -0.025,-0.145001 0.236001,-0.177001 0.235001,-0.028 0.284001,-0.018 0.378001,0.081 0.08,0.084 0.110001,0.094 0.113001,0.038 0.003,-0.042 0.014,-0.152001 0.025,-0.244001 l 0.018,-0.168001 -0.130001,0.107001 c -0.119,0.099 -0.152,0.102 -0.402001,0.047 -0.296002,-0.065 -0.291002,-0.052 -0.172001,-0.470002 0.03,-0.103001 0.017,-0.132001 -0.058,-0.132001 z m -2.45901,0.761003 a 0.40700166,0.40700166 0 0 0 -0.253001,0.08 c -0.07,0.062 -0.110001,0.069 -0.160001,0.026 -0.081,-0.072 -0.302001,-0.075 -0.450002,-0.005 -0.173001,0.081 -0.13,0.146001 0.077,0.117001 0.143001,-0.02 0.214001,-0.002 0.297001,0.079 0.144001,0.139 0.241001,0.133 0.356002,-0.021 0.066,-0.089 0.147,-0.127001 0.268001,-0.127001 0.148,0 0.163,-0.01 0.102,-0.075 -0.048,-0.05 -0.14,-0.075 -0.236001,-0.074 z m 5.072018,0.200001 c -0.243,0 -0.513,0.162001 -0.513,0.307001 0,0.07 -0.04,0.098 -0.14,0.098 -0.155,0 -0.341,0.133001 -0.29,0.206001 0.018,0.026 0.524,0.047 1.128,0.047 h 1.09601 l -0.018,-0.134 c -0.01,-0.075 -0.09,-0.180001 -0.178,-0.239001 -0.136,-0.088 -0.186,-0.095 -0.332,-0.047 -0.131,0.043 -0.182,0.042 -0.21501,-0.005 -0.088,-0.126001 -0.334,-0.233001 -0.538,-0.233001 z m -2.608008,0.663003 c -0.074,0.001 -0.153001,0.004 -0.236001,0.008 -0.595002,0.029 -1.010004,0.148 -1.588007,0.456002 -0.488002,0.259001 -0.702002,0.440001 -1.032004,0.872003 -0.465002,0.606003 -0.640002,1.090005 -0.640002,1.770007 0,0.489002 0.086,0.830004 0.317001,1.265006 a 3.6020147,3.6020147 0 0 0 1.220005,1.367005 c 0.591002,0.384002 1.040004,0.764003 1.177005,0.997004 0.123,0.210001 0.281001,0.748003 0.283001,0.963005 0,0.121 -0.022,0.14 -0.172001,0.14 h -0.173001 v 0.396002 c 0,0.218001 0.017,0.411001 0.038,0.430001 0.021,0.018 0.384002,0.034 0.807004,0.034 h 0.768003 v -0.860003 h -0.361001 l 0.035,-0.266001 c 0.094,-0.700003 0.376001,-1.138005 0.989006,-1.537007 1.421,-0.925003 1.99001,-1.769007 1.98701,-2.944012 -0.002,-0.836003 -0.30201,-1.473006 -0.99501,-2.116008 -0.378,-0.350002 -0.533,-0.452002 -0.98,-0.646003 -0.578005,-0.251001 -0.920006,-0.334001 -1.444008,-0.329001 z m -4.178017,0.022 c -0.278001,0 -0.453002,0.123 -0.502002,0.352001 -0.029,0.133001 -0.160001,0.252001 -0.700003,0.635003 -0.706003,0.500002 -0.706003,0.500002 -0.976004,1.212005 -0.139001,0.365001 -0.209001,0.470002 -0.467002,0.694003 -0.332001,0.288001 -0.590002,0.597002 -0.590002,0.705003 0,0.038 0.057,0.068 0.129,0.067 0.09,0 0.188001,-0.077 0.320002,-0.249001 0.223,-0.287002 0.486002,-0.416002 0.919003,-0.448002 0.392002,-0.03 0.648003,0.06 0.648003,0.226001 0,0.184 0.244001,0.371001 0.483002,0.371001 0.393002,0 0.582002,-0.435002 0.298001,-0.685003 -0.142,-0.125 -0.310001,-0.15 -0.520002,-0.078 -0.11,0.038 -0.434002,-0.037 -0.434002,-0.101 0,-0.018 0.088,-0.087 0.195001,-0.153001 0.108,-0.067 0.343001,-0.222001 0.524002,-0.346001 0.282001,-0.192001 0.344002,-0.216001 0.438002,-0.164001 0.165001,0.09 0.330001,0.072 0.402002,-0.045 0.111,-0.183 0.03,-0.250001 -0.308002,-0.250001 -0.302001,0 -0.326001,0.012 -0.939003,0.436002 -1.019005,0.706003 -1.128005,0.707003 -0.820004,0.008 0.127001,-0.286001 0.257001,-0.547002 0.290001,-0.582003 0.032,-0.035 0.317002,-0.246001 0.632003,-0.468001 0.476002,-0.337002 0.591002,-0.397002 0.680003,-0.355002 0.333001,0.156001 0.751003,-0.048 0.749003,-0.364001 -0.002,-0.258001 -0.174001,-0.418002 -0.450002,-0.418002 z m 4.373018,0.258001 0.205001,0.174001 c 0.659006,0.555002 1.047006,1.866007 0.894006,3.018012 -0.112,0.849003 -0.36,1.503006 -0.775006,2.050008 -0.1,0.133001 -0.198001,0.240001 -0.218001,0.240001 -0.02,0 0.061,-0.246001 0.180001,-0.548002 0.387001,-0.987004 0.432002,-1.233005 0.427002,-2.335009 -0.005,-0.920004 -0.015,-1.017005 -0.161001,-1.442006 a 5.8440238,5.8440238 0 0 0 -0.354002,-0.806004 z m -0.549003,0.08 0.007,0.004 c 0.012,0.01 -0.053,0.166001 -0.144,0.344001 -0.664003,1.290006 -0.675003,2.756012 -0.037,4.490019 0.116,0.316001 0.201001,0.583002 0.189001,0.594002 -0.045,0.04 -0.440002,-0.469002 -0.649003,-0.835003 -0.652003,-1.145005 -0.687003,-2.622011 -0.087,-3.723015 0.189,-0.346002 0.638002,-0.888004 0.721002,-0.873004 z m 5.10902,0.058 a 0.23200094,0.23200094 0 0 0 -0.146,0.058 c -0.071,0.063 -0.08,0.106 -0.034,0.180001 0.072,0.118 0.244,0.127 0.347,0.018 0.12,-0.126001 -0.017,-0.262001 -0.167,-0.256001 z m 0.495,0.160001 c -0.035,-0.003 -0.069,0.015 -0.104,0.053 -0.056,0.059 -0.016,0.169 0.21,0.566002 0.47901,0.843003 0.49701,0.883004 0.38201,0.822003 a 8.8300359,8.8300359 0 0 1 -0.71401,-0.443001 c -0.4,-0.403001 -0.547,-0.450002 -0.818,-0.262001 a 0.36000146,0.36000146 0 0 0 0,0.600003 c 0.189,0.13 0.367,0.133 0.548,0.008 0.138,-0.095 0.142,-0.095 0.342,0.013 0.56701,0.305001 1.04101,0.666002 1.20501,0.918003 0.15,0.231001 0.386,0.970004 0.326,1.022004 -0.013,0.011 -0.113,-0.027 -0.223,-0.084 a 0.50000203,0.50000203 0 0 1 -0.268,-0.304001 c -0.038,-0.111 -0.118,-0.225001 -0.179,-0.253001 -0.45801,-0.215001 -0.91801,0.263001 -0.56801,0.590002 0.134,0.126001 0.43701,0.160001 0.54901,0.062 0.045,-0.04 0.168,0.004 0.44,0.155001 0.44,0.244001 0.69,0.477002 0.786,0.731003 0.047,0.124001 0.103,0.181001 0.18,0.181001 0.206,0 0.115,-0.290001 -0.26,-0.830004 -0.076,-0.108 -0.183,-0.392001 -0.24,-0.632002 -0.083,-0.355002 -0.198,-0.597003 -0.629,-1.320006 -0.29,-0.487002 -0.60001,-1.038004 -0.68901,-1.224005 -0.117,-0.246001 -0.199,-0.360001 -0.276,-0.368001 z m -3.86001,0.276001 c 0.015,-0.002 0.084,0.053 0.209,0.168001 0.749,0.698003 1.011,1.942008 0.641,3.046012 -0.084,0.250001 -0.228,0.558003 -0.319,0.683003 -0.091,0.125001 -0.289,0.330001 -0.44,0.455002 l -0.272,0.228001 0.242,-0.249001 c 0.572,-0.587003 0.836,-1.265005 0.838,-2.154009 0.001,-0.787003 -0.207,-1.365005 -0.684,-1.898008 -0.162,-0.18 -0.234,-0.277001 -0.215,-0.280001 z m -2.928014,10e-4 c 0.033,0 -0.03,0.110001 -0.140001,0.245001 -0.444002,0.542002 -0.720003,1.270005 -0.721003,1.909008 -0.003,0.674003 0.224001,1.295005 0.717003,1.970008 0.163001,0.222001 0.316001,0.433002 0.340001,0.468002 0.07,0.101 0.025,0.077 -0.326001,-0.177001 -0.605002,-0.438002 -0.945004,-0.901003 -1.104004,-1.502006 -0.173001,-0.656003 -0.074,-1.450006 0.246001,-1.977008 0.154,-0.252001 0.875003,-0.936004 0.988004,-0.936004 z m -4.395018,3.086013 c -0.125001,-0.003 -0.283001,0.029 -0.336002,0.085 -0.07,0.075 -0.064,0.08 0.066,0.053 0.169001,-0.037 0.245001,-0.003 0.338002,0.153001 0.09,0.15 0.212001,0.144 0.333001,-0.017 0.079,-0.105001 0.130001,-0.125001 0.260001,-0.102001 0.120001,0.02 0.163001,0.009 0.163001,-0.045 0,-0.102 -0.274001,-0.153 -0.470002,-0.088 -0.096,0.032 -0.176001,0.035 -0.196001,0.008 -0.02,-0.03 -0.083,-0.044 -0.158001,-0.046 z m 12.148052,0.683003 -0.029,0.494002 -0.029,0.495002 -0.216,-0.136001 c -0.119,-0.074 -0.227,-0.126 -0.24,-0.114 -0.10001,0.087 -0.94301,1.735007 -0.91801,1.793007 0.026,0.059 0.16,0.074 0.631,0.074 h 0.60001 v 0.574003 c 0,0.315001 0.017,0.590002 0.04,0.609002 0.022,0.02 0.08,0.028 0.13,0.02 0.073,-0.012 0.091,-0.120001 0.105,-0.609003 l 0.016,-0.594003 h 0.655 c 0.724,0 0.784,-0.027 0.626,-0.284001 -0.05,-0.08 -0.232,-0.396002 -0.405,-0.702003 a 45.679186,45.679186 0 0 0 -0.64,-1.088003 z m -11.48705,0.046 a 0.28000114,0.28000114 0 0 0 -0.11,0.026 c -0.091,0.047 -0.089,0.052 0.028,0.053 0.07,0.001 0.161001,0.047 0.200001,0.103 0.086,0.120001 0.265001,0.134001 0.312001,0.025 0.02,-0.043 0.106001,-0.075 0.204001,-0.075 0.107,0 0.156001,-0.02 0.131,-0.055 -0.02,-0.03 -0.145,-0.048 -0.277001,-0.04 a 1.3450055,1.3450055 0 0 1 -0.367001,-0.024 0.35800146,0.35800146 0 0 0 -0.120001,-0.013 z m -1.167004,0.293001 c -0.026,-0.01 -0.188001,0.173001 -0.360002,0.404002 a 15.290062,15.290062 0 0 1 -0.498002,0.636002 l -0.184001,0.215001 h 0.206001 c 0.114001,0 0.207001,0.014 0.207001,0.031 0,0.04 -0.358001,0.472002 -0.686003,0.830003 l -0.257001,0.278002 0.323002,0.025 0.323001,0.025 -0.154001,0.187001 c -0.085,0.103001 -0.279001,0.325001 -0.431001,0.494002 l -0.277002,0.306001 h 1.562007 v 0.152001 c 0,0.135001 0.02,0.152001 0.173,0.152001 0.154001,0 0.173001,-0.017 0.173001,-0.152001 0,-0.152001 0,-0.152001 0.344002,-0.152001 h 0.345001 l -0.062,-0.14 c -0.034,-0.076 -0.066,-0.303001 -0.071,-0.505002 -0.008,-0.305002 0.006,-0.367002 0.082,-0.367002 0.05,0 0.176001,-0.092 0.279001,-0.204001 L 93.867201,87.202021 93.6412,86.96302 c -0.124001,-0.13 -0.270001,-0.300001 -0.325002,-0.374001 l -0.1,-0.136001 0.204001,-0.016 0.203001,-0.016 -0.466002,-0.607002 c -0.256001,-0.334002 -0.487002,-0.615003 -0.513002,-0.623003 z m 10.700044,0.150001 c -0.102,-0.001 -0.21,0.03 -0.368,0.093 a 0.57700235,0.57700235 0 0 0 -0.366,0.334001 c -0.193,0.383001 -0.03,0.740003 0.415,0.913004 l 0.23,0.09 -0.015,0.529002 c -0.01,0.295001 -0.042,0.537002 -0.074,0.546002 -0.032,0.01 -0.134,-0.103 -0.228,-0.249001 a 5.0000203,5.0000203 0 0 0 -0.36,-0.484001 l -0.19,-0.220001 v 0.234001 c 0,0.215001 -0.009,0.230001 -0.112,0.181001 -0.20301,-0.095 -0.26601,-0.056 -0.58301,0.363001 -0.172,0.229001 -0.463,0.582003 -0.645,0.784004 -0.182,0.202001 -0.331,0.390001 -0.331,0.420001 0,0.033 0.69,0.05 2.01701,0.05 1.67,0 2.01701,-0.011 2.01701,-0.069 0,-0.038 -0.27301,-0.296001 -0.60601,-0.572002 l -0.605,-0.502002 v -0.529003 l 0.001,-0.529002 0.168,-0.083 c 0.533,-0.267001 0.517,-0.918003 -0.03,-1.193005 -0.138,-0.07 -0.234,-0.104 -0.336,-0.106 z m -8.050034,0.526002 a 0.43200176,0.43200176 0 0 0 -0.226,0.069 c -0.102001,0.064 -0.183001,0.079 -0.272002,0.05 -0.134,-0.044 -0.476001,0.034 -0.476001,0.108 0,0.023 0.089,0.03 0.197,0.014 0.159001,-0.022 0.212001,-0.007 0.273001,0.08 0.111001,0.156001 0.274002,0.134001 0.345002,-0.045 0.049,-0.122 0.094,-0.152 0.228001,-0.152 0.212001,0 0.218001,-0.08 0.009,-0.118001 a 0.34100139,0.34100139 0 0 0 -0.078,-0.006 z m 3.302014,1.136004 h 0.904004 l -0.056,0.143001 a 4.0220164,4.0220164 0 0 0 -0.129001,0.519002 l -0.07,0.375002 -0.210001,0.015 -0.208001,0.016 -0.042,-0.320001 A 3.4150139,3.4150139 0 0 0 98.66922,87.218021 Z m -3.794016,0.152001 c -0.272001,0.007 -0.514002,0.117 -0.790003,0.347001 -0.367001,0.306002 -0.472002,0.606003 -0.328001,0.939005 0.068,0.156 0.217001,0.126 0.269001,-0.054 0.042,-0.147 0.182001,-0.22 0.423002,-0.22 0.247001,0 0.268001,0.098 0.093,0.434001 -0.082,0.157001 -0.149001,0.295002 -0.149001,0.305002 0,0.067 0.275001,0 0.392002,-0.094 l 0.14,-0.114 0.086,0.114 c 0.048,0.062 0.140001,0.113001 0.204001,0.113001 0.107,0 0.114001,-0.023 0.085,-0.303002 l -0.032,-0.304001 h 0.227001 c 0.194001,0 0.235001,0.02 0.287001,0.140001 a 0.40000163,0.40000163 0 0 1 0.004,0.303001 c -0.055,0.160001 -0.052,0.164001 0.112001,0.164001 0.181,0 0.281001,-0.136001 0.281001,-0.382002 0,-0.068 0.012,-0.124 0.026,-0.124 0.015,0 0.145,0.071 0.290001,0.157 0.204001,0.120001 0.257001,0.180001 0.230001,0.253001 -0.029,0.08 -0.006,0.097 0.142,0.097 0.169001,0 0.177001,-0.01 0.177001,-0.208001 a 0.47000191,0.47000191 0 0 0 -0.143999,-0.358003 0.51100208,0.51100208 0 0 1 -0.144001,-0.298001 c 0,-0.170001 0.034,-0.182001 0.183001,-0.064 0.182001,0.145 0.167001,0.046 -0.035,-0.216001 -0.396002,-0.517003 -0.771003,-0.693003 -1.248005,-0.587003 a 0.95300388,0.95300388 0 0 1 -0.417002,0.006 1.4150058,1.4150058 0 0 0 -0.364002,-0.046 z m 12.192046,0.844004 -0.12,0.114 c -0.104,0.098 -0.157,0.109001 -0.38,0.08 -0.362,-0.048 -0.53,0.033 -0.745,0.356001 -0.1,0.151001 -0.173,0.275001 -0.163,0.275001 0.01,0 0.096,-0.09 0.19,-0.203001 l 0.17,-0.203 0.031,0.21 c 0.018,0.116001 0.067,0.230001 0.109,0.253001 0.138,0.077 0.183,0.046 0.078,-0.055 -0.17,-0.165 -0.077,-0.252001 0.255,-0.240001 0.276,0.01 0.29,0.018 0.29,0.150001 0,0.108 0.028,0.139 0.123,0.139 0.1,0 0.11,-0.013 0.053,-0.074 -0.104,-0.11 0.144,-0.483002 0.32201,-0.483002 0.206,0 0.202,-0.07 -0.014,-0.199001 z m -0.986,1.390006 a 1.8200074,1.8200074 0 0 0 -0.71,0.131 c -0.66401,0.300001 -0.90801,1.023004 -0.52,1.538006 0.161,0.214001 0.503,0.387002 1.026,0.520002 0.506,0.127001 0.682,0.333002 0.465,0.544003 -0.152,0.147 -0.55,0.12 -0.983,-0.065 -0.33,-0.14 -0.385,-0.15 -0.54,-0.094 -0.20101,0.073 -0.28401,0.187001 -0.28401,0.390002 0,0.270001 0.43101,0.514002 1.09501,0.620002 0.959,0.150001 1.76001,-0.336001 1.74701,-1.062004 -0.01,-0.562003 -0.31501,-0.854004 -1.11201,-1.063005 -0.494,-0.13 -0.635,-0.22 -0.635,-0.408001 0,-0.122001 0.039,-0.166001 0.206,-0.236001 0.2,-0.084 0.219,-0.083 0.562,0.03 0.533,0.176001 0.697,0.188001 0.84001,0.063 0.181,-0.16 0.162,-0.432002 -0.043,-0.613002 -0.22001,-0.193001 -0.67701,-0.299002 -1.11401,-0.295001 z m -13.708056,0.194 c -0.491002,0 -0.516002,0.081 -0.516002,1.720007 v 1.371006 l 0.142001,0.125 a 0.54200221,0.54200221 0 0 0 0.697003,0 l 0.141,-0.125 v -2.880012 l -0.152,-0.106 a 0.65400266,0.65400266 0 0 0 -0.312002,-0.105001 z m 5.310022,0.003 a 0.55300225,0.55300225 0 0 0 -0.333001,0.120001 l -0.162001,0.122 0.01,0.763003 c 0.007,0.420002 -0.01,0.763004 -0.035,0.763004 -0.026,0 -0.199001,-0.163001 -0.385002,-0.362002 -0.531002,-0.568002 -1.298005,-1.308005 -1.410005,-1.360006 -0.231001,-0.109 -0.576003,-0.014 -0.680003,0.187001 -0.042,0.08 -0.064,0.594003 -0.064,1.480006 v 1.357006 l 0.151,0.133 c 0.203001,0.178001 0.471002,0.180001 0.660003,0.003 0.132001,-0.123 0.140001,-0.17 0.168001,-0.922003 l 0.029,-0.792004 0.403001,0.410002 c 0.222001,0.225001 0.585003,0.596002 0.807004,0.826003 0.222001,0.230001 0.465002,0.460002 0.541002,0.513002 a 0.49600202,0.49600202 0 0 0 0.614002,-0.028 l 0.142001,-0.125 v -2.842012 l -0.142001,-0.124 a 0.47300192,0.47300192 0 0 0 -0.313001,-0.122001 z m 3.792014,0.048 c -1.004,0 -1.18,0.012 -1.272,0.084 -0.097,0.077 -0.105,0.193001 -0.105,1.535006 0,1.320005 0.01,1.459006 0.101,1.529006 a 0.78000317,0.78000317 0 0 0 0.187,0.105001 c 0.048,0.015 0.55,0.03 1.115,0.032 1.18401,0.005 1.37001,-0.037 1.47901,-0.327001 0.073,-0.193001 -0.032,-0.436002 -0.228,-0.528003 -0.06,-0.029 -0.47601,-0.052 -0.92101,-0.052 h -0.81 v -0.354001 h 0.573 c 0.315,0 0.638,-0.026 0.716,-0.057 0.30001,-0.120001 0.32801,-0.511003 0.05,-0.703003 -0.124,-0.085 -0.234,-0.100001 -0.746,-0.100001 h -0.601 l 0.018,-0.14 0.018,-0.139001 0.841,-0.025 c 0.89101,-0.027 0.99201,-0.053 1.09501,-0.291001 0.064,-0.149001 -0.063,-0.437002 -0.227,-0.514002 -0.073,-0.034 -0.55801,-0.055 -1.28301,-0.055 z m -4.190016,3.940016 a 0.6640027,0.6640027 0 0 0 -0.405001,0.134 c -0.315002,0.233001 -0.310002,0.650003 0.01,0.830003 0.448002,0.253001 0.960004,0.03 0.960004,-0.417001 0,-0.327002 -0.265001,-0.542002 -0.564003,-0.546002 z m -2.800011,0.008 c -0.073,-0.004 -0.151001,0.01 -0.176001,0.045 -0.03,0.043 0.235001,0.690003 0.378002,0.924004 0.096,0.158 0.217001,0.102 0.377001,-0.174001 l 0.155001,-0.265001 0.138,0.265001 c 0.205001,0.393001 0.309002,0.363001 0.532003,-0.150001 0.236001,-0.543002 0.244001,-0.621002 0.062,-0.621002 -0.117001,0 -0.160001,0.042 -0.239001,0.227001 -0.052,0.126 -0.116001,0.224001 -0.142001,0.219 -0.025,-0.005 -0.087,-0.108 -0.137,-0.228 -0.138001,-0.329002 -0.295002,-0.322002 -0.460002,0.02 l -0.131001,0.268002 -0.105,-0.203001 a 1.1760048,1.1760048 0 0 1 -0.110001,-0.265001 c -0.002,-0.037 -0.069,-0.058 -0.142,-0.062 z m 4.504018,0.007 c -0.022,0 -0.045,0 -0.069,0.002 l -0.291001,0.015 -0.017,0.518002 -0.016,0.519002 h 0.146 c 0.124001,0 0.146001,-0.023 0.146001,-0.152001 0,-0.09 0.03,-0.152 0.074,-0.152 0.04,0 0.12,0.069 0.176001,0.152 0.077,0.114001 0.145,0.152001 0.272001,0.152001 0.202,0 0.205,-0.016 0.05,-0.207001 -0.108001,-0.134001 -0.110001,-0.155001 -0.029,-0.227001 0.05,-0.044 0.09,-0.156001 0.09,-0.249001 0,-0.237001 -0.194001,-0.371001 -0.532002,-0.371001 z m 1.513009,0.017 c -0.142,0 -0.145,0.008 -0.161,0.451002 -0.01,0.248001 -0.004,0.483001 0.013,0.520002 0.023,0.053 0.14,0.067 0.478,0.055 0.403,-0.013 0.447,-0.024 0.447,-0.116001 0,-0.086 -0.044,-0.103 -0.3,-0.116 l -0.3,-0.015 -0.017,-0.390002 c -0.016,-0.378001 -0.02,-0.390001 -0.16,-0.390001 z m 1.527,0 -0.017,0.451002 c -0.01,0.248001 -0.004,0.482001 0.012,0.519002 0.044,0.099 0.60701,0.087 0.78401,-0.016 0.224,-0.131001 0.287,-0.226001 0.287,-0.432002 0,-0.140001 -0.045,-0.236001 -0.168,-0.356002 -0.155,-0.153 -0.193,-0.165 -0.533,-0.166 z m 0.40901,0.255001 a 0.36700149,0.36700149 0 0 1 0.141,0.04 c 0.16,0.069 0.22,0.300001 0.11,0.416002 a 0.32400132,0.32400132 0 0 1 -0.206,0.073 c -0.126,0 -0.137,-0.02 -0.137,-0.250001 0,-0.197001 0.017,-0.277001 0.092,-0.280001 z m -5.150026,0.023 c 0.211001,0 0.326002,0.190001 0.227001,0.380001 -0.047,0.09 -0.11,0.126001 -0.228001,0.126001 -0.203001,0 -0.300001,-0.083 -0.300001,-0.253001 0,-0.170001 0.097,-0.253001 0.300001,-0.253001 z m 1.748007,0 c 0.110001,0 0.144001,0.023 0.130001,0.088 -0.011,0.049 -0.078,0.096 -0.150001,0.105001 -0.097,0.012 -0.128,-0.009 -0.128,-0.089 0,-0.078 0.037,-0.104 0.148,-0.104001 z m -7.351029,0.101 v 0.253001 h 0.828003 c 0.684003,0 0.842003,-0.014 0.904004,-0.08 0.131,-0.139001 -0.043,-0.171001 -0.911004,-0.172001 z m 13.822058,0.008 c -0.625,-0.003 -0.723,0.032 -0.664,0.167001 0.031,0.07 0.157,0.079 0.945,0.067 0.865,-0.014 0.908,-0.02 0.908,-0.115 0,-0.097 -0.043,-0.102001 -0.888,-0.116001 a 16.960069,16.960069 0 0 0 -0.301,-0.003 z"
       id="path10" />
  </g>
</svg>
