<?xml version="1.0" standalone="no"?>
<!DOCTYPE svg PUBLIC "-//W3C//DTD SVG 20010904//EN"
 "http://www.w3.org/TR/2001/REC-SVG-20010904/DTD/svg10.dtd">
<svg version="1.0" xmlns="http://www.w3.org/2000/svg"
 width="700.000000pt" height="700.000000pt" viewBox="0 0 700.000000 700.000000"
 preserveAspectRatio="xMidYMid meet">
<metadata>
Created by potrace 1.14, written by Peter Selinger 2001-2017
</metadata>
<g transform="translate(0.000000,700.000000) scale(0.100000,-0.100000)"
fill="#000000" stroke="none">
<path d="M3248 6995 c-1 -1 -48 -6 -103 -9 -55 -4 -127 -11 -160 -16 -33 -5
-76 -11 -95 -14 -37 -6 -119 -22 -157 -31 -13 -3 -33 -7 -44 -10 -195 -42
-565 -164 -744 -244 -147 -66 -390 -192 -465 -241 -86 -57 -308 -218 -337
-244 -6 -6 -33 -29 -60 -51 -196 -162 -425 -416 -585 -650 -193 -285 -350
-622 -428 -925 -23 -85 -46 -223 -58 -340 -10 -90 -8 -551 3 -635 23 -190 55
-291 99 -320 62 -41 172 -1 202 72 14 32 14 85 0 158 -2 11 -6 43 -10 70 -3
28 -9 73 -13 100 -16 104 -6 574 11 604 2 4 6 29 10 58 15 127 70 334 136 513
86 235 271 543 445 740 129 146 217 236 338 343 258 228 562 418 897 559 94
40 289 111 337 123 10 3 78 20 150 39 73 19 148 37 165 40 18 3 69 12 113 20
277 52 754 67 987 31 13 -2 50 -7 83 -10 87 -11 91 -12 190 -29 224 -39 519
-125 705 -204 304 -129 703 -381 929 -587 329 -299 503 -520 671 -855 106
-211 180 -412 214 -580 3 -14 8 -36 11 -50 23 -106 33 -245 34 -480 0 -180 -7
-289 -25 -405 -2 -11 -6 -56 -8 -100 -7 -131 22 -174 122 -178 31 -1 47 5 67
23 41 38 83 175 101 330 3 30 9 59 12 64 9 16 10 417 1 516 -7 81 -24 197 -45
315 -18 101 -67 270 -117 405 -124 330 -416 763 -711 1055 -419 415 -1026 748
-1686 924 -114 31 -347 78 -420 86 -36 4 -78 9 -95 12 -33 5 -661 13 -667 8z"/>
<path d="M3476 6600 c-14 -17 -39 -56 -56 -88 -44 -82 -64 -102 -117 -121 -67
-24 -67 -43 1 -64 51 -17 57 -22 87 -77 39 -73 119 -174 142 -178 22 -5 22 12
-4 126 -15 65 -19 96 -11 104 14 14 162 33 195 24 15 -3 42 -20 61 -36 19 -17
37 -27 39 -22 3 4 9 45 13 91 l7 84 -48 -37 c-53 -40 -80 -44 -175 -23 -87 20
-102 31 -95 75 3 20 12 61 21 91 8 29 13 60 10 67 -9 24 -43 16 -70 -16z"/>
<path d="M2413 6289 c-57 -30 -58 -30 -88 -13 -55 33 -202 11 -219 -32 -6 -16
5 -18 88 -15 51 2 63 -1 95 -27 78 -63 90 -62 163 5 26 23 55 43 65 44 23 1
85 7 97 8 5 1 3 8 -4 17 -41 48 -120 54 -197 13z"/>
<path d="M4484 6206 c-53 -25 -94 -67 -94 -96 0 -24 -18 -37 -61 -44 -50 -8
-71 -16 -96 -39 -23 -20 -30 -45 -15 -49 32 -6 119 -9 490 -13 l423 -5 -7 38
c-10 59 -43 101 -103 133 -43 22 -45 22 -104 6 -65 -17 -77 -15 -123 28 -69
64 -217 84 -310 41z"/>
<path d="M3330 5949 c-30 -4 -74 -9 -97 -12 -175 -23 -512 -172 -668 -295
-137 -108 -334 -363 -401 -520 -101 -236 -116 -541 -38 -778 30 -93 102 -237
166 -334 125 -186 234 -292 463 -450 229 -158 384 -292 440 -380 53 -83 120
-320 118 -414 -1 -37 -16 -46 -85 -46 l-57 0 4 -162 c3 -141 5 -164 21 -175
20 -14 16 -14 382 -17 l262 -2 0 178 0 178 -75 0 -76 0 5 33 c3 17 12 73 21
123 17 109 53 213 102 297 48 83 186 218 303 296 383 258 587 463 709 714 87
180 124 431 97 657 -14 115 -72 290 -123 372 -13 21 -23 40 -23 44 0 18 -129
172 -216 259 -173 173 -261 231 -494 328 -137 56 -246 89 -355 106 -68 10
-303 10 -385 0z m377 -196 c141 -136 249 -339 312 -588 48 -188 63 -482 35
-655 -7 -47 -16 -103 -19 -125 -18 -119 -78 -308 -141 -444 -68 -146 -243
-396 -244 -348 0 10 23 80 51 155 125 338 145 402 174 552 23 118 27 755 5
880 -26 151 -117 382 -228 578 -22 39 -38 72 -33 72 4 0 44 -35 88 -77z m-327
51 c0 -3 -31 -72 -69 -153 -59 -126 -125 -295 -136 -349 -2 -9 -10 -46 -18
-82 -9 -36 -18 -84 -22 -107 -3 -23 -8 -57 -11 -75 -10 -56 -13 -400 -4 -463
4 -33 11 -84 14 -114 21 -179 78 -389 215 -781 33 -93 36 -110 21 -110 -15 0
-115 125 -192 240 -147 222 -225 433 -267 728 -9 64 -7 337 3 407 29 195 98
396 183 537 98 160 283 371 283 322z m-501 -226 c-7 -12 -38 -57 -69 -98 -90
-120 -130 -191 -201 -355 -17 -41 -49 -163 -63 -240 -14 -80 -15 -292 -1 -365
23 -124 75 -272 133 -379 19 -35 40 -74 46 -85 16 -31 104 -158 184 -266 39
-52 68 -97 66 -99 -5 -5 -146 91 -209 141 -80 64 -203 195 -251 268 -85 126
-141 278 -162 435 -10 71 -8 279 2 325 3 14 9 41 12 60 23 136 90 279 178 381
115 134 327 321 344 304 2 -2 -2 -14 -9 -27z m1316 -56 c125 -122 197 -241
259 -426 81 -239 79 -559 -4 -806 -68 -204 -148 -333 -275 -445 -124 -108
-138 -118 -69 -45 98 104 103 110 168 210 88 135 147 281 171 425 2 11 7 38
10 60 14 81 13 321 -1 420 -31 224 -104 380 -268 575 -40 47 -76 91 -80 98
-16 27 28 -6 89 -66z m-505 -2370 c0 -4 -9 -32 -20 -62 -19 -52 -52 -192 -64
-274 -12 -73 -17 -86 -40 -87 -11 0 -49 -3 -84 -5 -70 -6 -68 -8 -76 71 -9 84
-34 205 -60 287 l-24 78 184 -1 c101 0 184 -3 184 -7z"/>
<path d="M1701 5937 c-43 -14 -98 -70 -107 -110 -7 -36 -36 -81 -74 -115 -24
-21 -113 -88 -331 -249 -164 -121 -191 -157 -280 -382 -80 -205 -81 -206 -274
-391 -97 -93 -175 -191 -175 -221 0 -22 33 -38 66 -31 24 4 56 33 146 130 98
105 208 150 383 156 143 5 228 -30 238 -100 9 -58 34 -87 107 -124 82 -42 198
-16 244 55 41 62 26 158 -32 207 -51 43 -102 53 -183 38 -56 -11 -83 -11 -126
-2 -59 12 -87 28 -77 44 9 14 377 256 408 268 19 7 38 6 72 -6 83 -28 130 -20
157 25 43 73 16 95 -117 98 -81 2 -109 -2 -144 -17 -23 -11 -151 -91 -282
-179 -256 -171 -290 -191 -336 -194 -26 -2 -29 2 -32 29 -3 36 32 129 112 296
44 91 65 124 98 151 91 73 356 259 414 289 60 31 62 32 116 19 30 -7 63 -14
74 -14 78 -5 170 45 200 108 21 46 14 123 -17 167 -43 59 -155 85 -248 55z"/>
<path d="M5464 5783 c-36 -7 -66 -47 -58 -77 15 -59 113 -71 154 -19 25 32 25
36 -2 67 -24 26 -58 37 -94 29z"/>
<path d="M5658 5706 c-36 -27 -20 -65 137 -346 108 -193 131 -240 115 -240
-11 0 -180 100 -260 154 -25 16 -74 56 -110 89 -107 98 -158 114 -235 77 -49
-23 -67 -38 -87 -70 -64 -99 15 -227 145 -238 44 -3 61 1 111 27 32 17 67 31
78 31 44 0 320 -169 435 -267 97 -83 130 -122 167 -198 60 -123 124 -341 106
-359 -12 -12 -95 23 -136 59 -19 17 -51 63 -72 104 -44 88 -82 114 -166 114
-156 0 -242 -155 -141 -256 53 -53 168 -74 220 -40 31 20 48 16 148 -35 195
-101 308 -198 366 -315 38 -77 61 -95 99 -78 23 11 24 15 18 58 -6 48 -51 138
-116 233 -47 70 -62 100 -88 175 -18 51 -55 176 -67 225 -17 72 -89 205 -343
640 -46 78 -162 289 -190 346 -37 74 -78 124 -100 124 -10 0 -25 -7 -34 -14z"/>
<path d="M978 4318 c-20 -5 -44 -18 -53 -28 -17 -19 -15 -19 50 -17 l67 2 47
-53 c60 -68 83 -69 145 -5 45 46 67 53 133 42 47 -8 57 21 18 47 -35 23 -179
21 -217 -2 -4 -3 -21 2 -37 11 -33 17 -96 18 -153 3z"/>
<path d="M6089 4010 c-1 -19 -3 -55 -4 -80 -2 -25 -6 -99 -10 -165 -3 -65 -7
-120 -8 -121 -1 -1 -38 20 -82 47 -44 27 -87 49 -96 49 -9 0 -37 -36 -67 -87
-65 -110 -310 -599 -318 -634 -4 -19 -1 -28 13 -34 10 -5 124 -10 253 -13 129
-2 236 -5 237 -6 0 0 3 -108 5 -238 1 -130 6 -239 9 -242 10 -10 48 -16 64
-10 24 10 31 71 40 338 2 82 6 150 7 151 2 2 116 5 254 7 220 3 254 5 278 21
20 13 25 23 21 38 -4 11 -47 90 -97 177 -49 86 -100 175 -113 197 -96 170
-360 611 -376 630 -5 5 -9 -6 -10 -25z"/>
<path d="M1295 4016 c-16 -8 -23 -15 -15 -16 58 -6 70 -11 132 -61 39 -32 71
-32 107 2 18 16 40 29 49 30 45 2 84 8 90 13 16 17 -26 28 -114 30 -55 2 -126
6 -159 10 -43 4 -69 2 -90 -8z"/>
<path d="M810 3863 c-23 -27 -82 -100 -130 -163 -91 -118 -107 -139 -198 -247
l-53 -63 68 -1 c96 -2 98 -2 95 -19 -4 -17 -61 -92 -133 -176 -51 -59 -202
-225 -228 -251 -23 -23 -12 -26 149 -38 46 -3 86 -8 89 -10 2 -3 -5 -15 -16
-28 -10 -12 -50 -58 -88 -102 -37 -44 -102 -118 -144 -164 -42 -46 -80 -89
-84 -97 -7 -12 41 -14 311 -14 l318 0 1 -51 c1 -29 6 -56 12 -62 6 -6 34 -11
61 -11 58 0 70 10 70 66 0 27 6 40 19 48 11 5 74 10 141 10 112 0 122 1 115
18 -25 59 -36 121 -42 223 -8 149 -4 163 50 187 36 17 167 139 167 156 0 4
-51 63 -112 131 -62 68 -121 137 -131 154 l-18 31 40 1 c23 1 50 3 61 4 11 1
32 3 48 4 15 1 22 5 16 9 -5 4 -73 88 -149 187 -154 200 -247 313 -257 314 -3
1 -25 -20 -48 -46z"/>
<path d="M5153 3814 c-65 -24 -97 -43 -124 -72 -83 -88 -103 -239 -43 -324 41
-59 101 -102 187 -134 l73 -27 -2 -111 c-5 -196 -18 -321 -35 -331 -11 -8 -40
26 -126 145 -42 58 -101 135 -132 172 l-56 67 -2 -57 c-2 -31 -5 -71 -8 -89
l-6 -32 -41 15 c-53 18 -73 18 -105 -3 -15 -10 -87 -94 -161 -188 -75 -93
-138 -172 -141 -175 -3 -3 -31 -34 -61 -70 -30 -36 -62 -72 -70 -80 -30 -28
-103 -130 -97 -136 11 -12 258 -17 827 -17 757 0 830 2 830 27 0 7 -33 44 -72
82 -64 61 -102 94 -216 189 -14 11 -30 25 -36 30 -6 6 -44 37 -84 69 -40 33
-76 66 -81 75 -4 9 -7 110 -7 225 l1 209 54 28 c117 61 175 146 173 253 -3
119 -84 218 -222 270 -77 28 -120 27 -217 -10z"/>
<path d="M1897 3616 c-20 -8 -44 -19 -52 -26 -9 -8 -38 -12 -73 -10 -106 4
-134 1 -184 -18 -30 -12 -46 -32 -26 -33 7 0 44 0 81 1 67 1 69 0 112 -39 23
-22 49 -38 56 -37 41 7 58 21 80 62 26 52 29 54 101 63 63 7 73 26 21 40 -49
14 -69 13 -116 -3z"/>
<path d="M1689 3089 c-139 -22 -331 -166 -396 -297 -33 -67 -35 -148 -5 -216
12 -25 25 -46 29 -47 4 0 15 -2 25 -4 17 -3 58 37 58 58 0 21 30 56 63 73 42
22 174 25 187 4 19 -30 9 -69 -45 -178 -30 -61 -51 -113 -47 -116 4 -2 18 -3
32 -1 14 1 33 3 42 4 9 0 46 21 82 46 36 25 66 41 66 36 0 -4 15 -24 34 -43
58 -60 127 -54 120 9 -2 15 -6 67 -9 114 l-7 86 81 -2 c89 -3 106 -11 128 -62
17 -42 17 -85 -1 -128 -20 -46 -3 -66 51 -59 75 9 113 60 113 148 0 25 5 48
10 51 13 8 150 -67 190 -105 27 -25 31 -35 26 -60 -6 -33 -7 -32 72 -33 24 0
47 5 51 12 4 6 9 35 10 64 2 56 -15 96 -77 181 -22 32 -35 62 -39 96 -8 65 9
72 71 29 25 -18 48 -30 51 -28 13 14 -120 196 -178 245 -51 43 -121 85 -175
104 -56 20 -72 22 -155 15 -147 -12 -239 -14 -264 -4 -33 12 -140 17 -194 8z"/>
<path d="M6765 2720 c-48 -50 -78 -59 -193 -53 -150 8 -195 -13 -280 -130 -21
-29 -48 -70 -61 -92 l-23 -40 46 48 c25 26 58 64 72 83 15 19 29 33 31 31 2
-3 8 -30 13 -60 12 -73 35 -121 65 -135 33 -15 43 3 17 31 -11 12 -25 32 -31
44 -10 19 -8 25 15 40 38 25 206 24 231 -1 3 -3 6 -21 8 -41 2 -43 13 -55 49
-59 30 -4 44 10 27 27 -20 20 -12 67 20 115 46 70 76 88 152 91 9 1 17 7 17
15 0 15 -67 76 -83 76 -5 0 -21 9 -36 20 l-28 19 -28 -29z"/>
<path d="M6325 2169 c-49 -4 -112 -12 -140 -19 -146 -37 -280 -141 -342 -268
-36 -72 -38 -81 -38 -172 0 -90 3 -102 34 -163 18 -36 51 -82 72 -101 69 -64
197 -124 364 -171 120 -33 178 -59 216 -95 49 -47 51 -78 7 -125 -70 -74 -195
-68 -426 21 -63 24 -130 44 -150 44 -45 0 -109 -29 -139 -62 -27 -28 -43 -101
-32 -142 18 -67 130 -142 274 -185 132 -39 211 -50 345 -46 265 7 464 127 530
321 29 83 22 209 -15 292 -57 127 -172 200 -427 273 -228 64 -279 106 -252
206 7 27 94 72 151 80 26 3 68 -5 133 -26 266 -85 343 -86 395 -7 63 95 12
213 -118 275 -55 27 -101 41 -187 58 -63 12 -173 17 -255 12z"/>
<path d="M594 2072 c-57 -36 -79 -118 -84 -317 -2 -55 -3 -289 -4 -521 l-1
-421 30 -27 c49 -44 106 -69 163 -72 63 -3 109 14 169 63 l43 36 -2 599 -3
600 -58 36 c-52 32 -67 36 -140 39 -68 4 -87 1 -113 -15z"/>
<path d="M1778 2075 c-73 -27 -98 -55 -114 -130 -4 -16 -9 -275 -11 -575 l-5
-545 41 -38 c106 -98 224 -99 308 -3 30 34 37 56 48 171 4 47 19 435 18 483
-1 41 -14 52 216 -183 346 -353 494 -496 532 -515 80 -41 174 -27 247 37 l43
38 0 588 0 588 -25 20 c-15 11 -33 27 -41 35 -23 24 -81 44 -125 44 -50 0 -95
-18 -154 -62 l-45 -33 0 -295 c1 -162 -3 -306 -8 -319 -9 -23 -27 -7 -319 286
-320 320 -400 395 -448 412 -37 15 -113 13 -158 -4z"/>
<path d="M4025 2061 c-22 -4 -50 -12 -62 -19 -21 -11 -26 -21 -40 -74 -12 -45
-12 -1039 0 -1113 11 -64 15 -71 52 -97 25 -17 60 -31 90 -35 97 -12 786 -8
860 6 92 17 140 44 165 96 54 111 -10 233 -130 250 -60 9 -212 14 -462 14
l-208 1 1 58 c2 94 -13 87 181 88 210 1 316 9 360 27 103 44 124 175 42 261
-53 55 -77 60 -342 64 l-242 4 6 51 c4 29 8 53 9 55 6 8 67 11 275 17 231 6
306 10 375 20 131 20 187 110 136 220 -16 36 -64 93 -80 96 -3 1 -19 3 -36 6
-49 8 -907 11 -950 4z"/>
<path d="M2709 439 c-198 -30 -292 -244 -161 -367 75 -69 225 -89 317 -41 30
15 62 42 80 68 27 39 30 50 30 119 0 66 -4 82 -25 112 -60 87 -143 124 -241
109z m110 -143 c37 -23 47 -97 20 -147 -32 -61 -190 -50 -204 14 -19 87 2 130
71 145 37 8 89 2 113 -12z"/>
<path d="M1533 433 c-22 -8 -15 -42 34 -162 60 -150 115 -253 139 -261 43 -16
67 8 170 177 l20 32 43 -84 c47 -88 83 -135 106 -135 39 0 96 91 163 260 53
134 51 170 -8 170 -40 0 -67 -26 -108 -105 -21 -39 -44 -70 -51 -70 -9 0 -33
35 -55 78 -46 92 -73 115 -114 98 -28 -12 -71 -75 -107 -158 -10 -24 -21 -43
-24 -43 -5 0 -31 48 -95 180 -10 21 -19 25 -56 26 -25 1 -51 -1 -57 -3z"/>
<path d="M3345 430 c-37 -5 -41 -8 -42 -35 0 -16 -4 -112 -7 -213 l-7 -182 49
0 c54 0 72 12 72 49 1 91 29 97 99 21 43 -47 65 -62 93 -66 42 -7 88 2 88 17
0 5 -18 34 -41 64 -42 56 -43 62 -5 103 30 33 30 149 1 182 -47 53 -168 77
-300 60z m179 -136 c14 -36 -79 -79 -104 -49 -18 22 -4 63 23 67 36 5 75 -3
81 -18z"/>
<path d="M4029 408 c-19 -35 -23 -358 -6 -382 11 -16 29 -19 98 -20 113 -3
258 9 271 22 6 6 8 22 4 36 -7 27 -22 31 -165 40 -40 3 -75 7 -76 8 -2 2 -6
63 -10 136 -8 170 -12 182 -64 182 -31 0 -43 -5 -52 -22z"/>
<path d="M4709 388 c-10 -351 -9 -361 19 -373 31 -13 170 -15 228 -3 61 12
136 57 167 100 25 33 33 114 17 163 -17 50 -99 131 -147 144 -21 6 -93 11
-160 11 l-123 0 -1 -42z m247 -93 c33 -25 50 -67 46 -115 -2 -32 -45 -70 -80
-71 -35 -2 -66 2 -72 8 -9 8 -8 156 1 180 12 32 62 31 105 -2z"/>
<path d="M464 272 c-29 -3 -30 -5 -31 -53 l-2 -50 322 2 c177 1 336 5 353 10
37 10 66 40 55 57 -12 19 -87 29 -252 31 -328 5 -415 6 -445 3z"/>
<path d="M5924 261 c-43 -11 -54 -19 -54 -40 0 -44 15 -46 359 -44 179 0 344
5 366 10 62 14 58 59 -6 69 -56 9 -631 13 -665 5z"/>
</g>
</svg>
