<?xml version="1.0" standalone="no"?>
<!DOCTYPE svg PUBLIC "-//W3C//DTD SVG 20010904//EN"
 "http://www.w3.org/TR/2001/REC-SVG-20010904/DTD/svg10.dtd">
<svg version="1.0" xmlns="http://www.w3.org/2000/svg"
 width="700.000000pt" height="700.000000pt" viewBox="0 0 700.000000 700.000000"
 preserveAspectRatio="xMidYMid meet">
<metadata>
Created by potrace 1.14, written by Peter Selinger 2001-2017
</metadata>
<g transform="translate(0.000000,700.000000) scale(0.100000,-0.100000)"
fill="#000000" stroke="none">
<path d="M3248 6995 c-2 -1 -48 -6 -103 -9 -55 -4 -127 -11 -160 -16 -33 -5
-76 -11 -95 -14 -19 -3 -60 -10 -90 -16 -30 -6 -66 -13 -79 -16 -59 -12 -266
-69 -366 -101 -294 -94 -693 -274 -875 -393 -86 -57 -308 -218 -337 -244 -6
-6 -33 -29 -60 -51 -144 -119 -318 -300 -452 -470 -344 -439 -561 -934 -615
-1405 -13 -116 -14 -573 -1 -675 33 -264 69 -338 164 -337 86 1 146 63 146
147 -1 45 -7 103 -20 175 -15 86 -19 168 -20 345 0 173 9 336 19 354 2 4 6 29
10 58 15 127 70 334 136 513 86 235 271 543 445 740 265 301 494 495 812 688
55 34 103 62 106 62 3 0 31 15 64 33 222 125 636 272 903 320 14 3 63 12 110
21 286 52 758 67 992 31 13 -2 50 -7 83 -10 87 -11 91 -12 190 -29 325 -57
650 -165 920 -307 524 -274 946 -641 1232 -1069 167 -251 330 -632 368 -860 3
-19 8 -43 11 -52 20 -68 32 -237 33 -468 0 -181 -7 -289 -25 -405 -2 -11 -6
-56 -8 -100 -7 -131 23 -176 123 -178 90 -2 135 102 174 403 25 190 10 603
-28 790 -3 14 -8 39 -11 55 -18 102 -67 270 -117 405 -124 330 -417 764 -711
1055 -423 418 -1024 747 -1686 924 -114 31 -347 78 -420 86 -36 4 -78 9 -95
12 -32 5 -661 13 -667 8z"/>
<path d="M3476 6600 c-14 -17 -39 -56 -56 -88 -44 -82 -64 -102 -117 -121 -67
-24 -67 -43 1 -64 51 -17 57 -22 87 -77 39 -73 119 -174 142 -178 22 -5 22 16
-3 120 -11 46 -20 89 -20 96 0 18 40 31 123 38 80 7 102 0 148 -43 15 -14 29
-21 32 -16 3 4 8 42 12 83 4 41 9 78 12 83 9 16 -10 6 -54 -28 -34 -26 -55
-35 -82 -34 -58 1 -149 23 -172 42 -22 20 -21 43 6 136 9 29 14 59 11 67 -9
24 -43 16 -70 -16z"/>
<path d="M2413 6289 c-57 -30 -58 -30 -87 -13 -31 18 -89 22 -146 11 -38 -8
-87 -43 -76 -55 4 -4 39 -6 78 -4 69 2 72 2 124 -39 63 -48 77 -47 146 17 26
24 55 44 65 45 23 1 85 7 97 8 5 1 3 8 -4 17 -41 48 -120 54 -197 13z"/>
<path d="M4575 6229 c-95 -9 -185 -68 -185 -119 0 -24 -18 -37 -61 -44 -50 -8
-71 -16 -96 -39 -23 -20 -30 -45 -15 -49 33 -6 120 -9 490 -13 l422 -5 -4 36
c-4 33 -14 53 -49 96 -7 9 -32 26 -56 39 -40 21 -47 21 -95 9 -28 -7 -56 -15
-61 -17 -6 -2 -34 14 -62 36 -72 54 -151 78 -228 70z"/>
<path d="M3330 5949 c-30 -4 -74 -9 -97 -12 -148 -20 -359 -104 -563 -226
-126 -75 -224 -166 -331 -307 -163 -217 -232 -378 -255 -593 -7 -68 -7 -235 0
-276 3 -16 8 -49 11 -73 18 -124 120 -346 232 -502 107 -151 236 -271 433
-405 219 -148 379 -287 435 -375 53 -83 120 -321 118 -414 -1 -37 -16 -46 -85
-46 l-56 0 2 -161 c3 -162 7 -179 43 -186 10 -2 154 -5 321 -7 l302 -3 0 178
0 179 -76 0 -76 0 6 28 c3 15 10 62 16 104 39 271 154 443 410 617 52 35 105
71 116 80 12 9 32 23 44 31 13 8 71 54 129 101 225 183 359 353 455 580 24 55
55 198 64 288 30 312 -41 574 -221 811 -101 133 -324 331 -447 397 -157 84
-399 169 -545 192 -68 10 -303 10 -385 0z m356 -175 c139 -122 247 -311 317
-554 26 -88 28 -100 52 -255 17 -116 17 -346 -1 -455 -7 -47 -16 -103 -19
-125 -18 -119 -78 -308 -141 -444 -47 -101 -150 -261 -209 -326 l-37 -40 6 31
c3 18 41 128 85 245 74 198 113 320 126 394 2 17 7 41 10 55 23 114 27 752 5
880 -26 151 -117 382 -228 578 -22 39 -39 72 -36 72 3 0 35 -25 70 -56z m-306
30 c0 -3 -29 -68 -64 -143 -85 -180 -140 -332 -162 -444 -2 -12 -6 -33 -9 -47
-6 -33 -15 -86 -22 -135 -3 -22 -7 -121 -8 -220 -3 -170 0 -216 26 -395 17
-121 85 -384 139 -540 74 -211 102 -301 96 -308 -24 -23 -244 287 -319 450
-70 151 -128 355 -145 512 -9 83 -8 316 1 395 23 189 95 406 184 553 98 160
283 371 283 322z m-501 -226 c-7 -12 -38 -57 -69 -98 -143 -190 -226 -378
-264 -595 -14 -80 -15 -293 -1 -365 44 -232 120 -392 321 -672 63 -87 110
-158 105 -158 -12 0 -145 95 -227 161 -224 182 -356 411 -392 684 -10 71 -8
279 2 325 3 14 9 41 12 60 21 129 93 282 177 381 101 118 329 320 345 305 2
-2 -2 -15 -9 -28z m1316 -55 c116 -115 195 -242 254 -410 24 -69 26 -74 47
-188 22 -110 21 -334 0 -455 -47 -265 -160 -483 -321 -625 -124 -108 -138
-118 -69 -45 91 96 100 108 156 188 92 134 162 307 185 457 2 17 7 41 9 55 3
14 7 90 9 170 8 345 -62 557 -267 806 -105 129 -102 124 -91 124 5 0 44 -35
88 -77z m-505 -2366 c0 -2 -9 -29 -19 -60 -19 -55 -53 -203 -65 -281 -12 -73
-17 -86 -40 -87 -11 0 -49 -3 -84 -5 -70 -6 -68 -8 -76 72 -5 44 -25 157 -40
219 -2 11 -13 48 -24 83 l-20 62 184 0 c101 0 184 -2 184 -3z"/>
<path d="M1701 5937 c-44 -14 -98 -70 -107 -110 -6 -30 -43 -88 -70 -112 -13
-12 -213 -162 -342 -258 -158 -116 -185 -153 -273 -377 -69 -175 -96 -220
-182 -299 -166 -153 -270 -277 -265 -315 4 -23 44 -37 76 -25 12 5 46 34 75
66 125 136 177 172 292 198 193 45 385 9 385 -72 0 -30 22 -73 49 -95 76 -63
172 -77 245 -34 60 35 80 69 81 137 0 46 -5 62 -29 93 -40 53 -106 80 -171 70
-115 -18 -236 -3 -239 31 0 11 327 234 390 265 40 20 44 20 89 5 84 -29 131
-22 158 24 43 73 16 95 -117 98 -81 2 -109 -2 -144 -17 -23 -11 -151 -91 -282
-179 -256 -171 -290 -191 -336 -194 -26 -2 -29 2 -32 29 -3 36 32 129 112 296
44 91 65 124 98 151 92 74 356 258 414 289 60 31 62 32 116 19 30 -7 63 -14
74 -14 78 -5 170 45 200 108 20 44 14 127 -14 165 -44 60 -159 86 -251 57z"/>
<path d="M5464 5783 c-36 -7 -66 -47 -58 -77 15 -59 113 -71 154 -19 25 32 25
36 -2 67 -24 26 -58 37 -94 29z"/>
<path d="M5658 5706 c-36 -27 -20 -65 137 -346 107 -190 131 -240 115 -240
-10 0 -187 104 -260 153 -25 17 -74 57 -110 90 -107 98 -158 114 -235 77 -49
-23 -67 -38 -87 -70 -64 -99 15 -227 145 -238 44 -3 61 1 111 27 32 17 67 31
78 31 44 0 320 -169 435 -267 97 -83 130 -122 167 -198 54 -111 123 -335 110
-357 -8 -13 -22 -10 -79 18 -69 34 -87 54 -133 145 -31 61 -44 77 -77 93 -107
51 -245 -4 -270 -107 -20 -76 37 -156 125 -177 52 -13 135 -6 145 11 12 18 45
8 138 -39 194 -101 309 -199 364 -313 36 -73 68 -98 102 -80 33 18 27 68 -18
155 -21 42 -58 103 -81 137 -59 87 -97 181 -136 334 -25 102 -80 221 -186 403
-28 48 -58 101 -68 117 -9 17 -38 65 -64 108 -25 43 -46 81 -46 85 0 3 -6 13
-14 21 -15 18 -62 104 -146 265 -87 166 -117 196 -162 162z"/>
<path d="M978 4318 c-20 -5 -44 -18 -53 -28 -17 -19 -15 -19 50 -17 l67 2 47
-53 c60 -68 83 -69 144 -6 42 43 48 45 93 44 75 -3 84 -1 84 15 0 42 -101 62
-197 40 -49 -11 -61 -11 -85 1 -30 16 -95 17 -150 2z"/>
<path d="M6089 4010 c-1 -19 -2 -55 -4 -80 -13 -232 -17 -285 -18 -286 -1 -1
-38 20 -82 47 -44 27 -87 49 -96 49 -9 0 -37 -36 -67 -87 -65 -110 -310 -599
-318 -634 -4 -19 -1 -28 13 -34 10 -5 124 -10 253 -13 129 -2 236 -5 237 -6 0
0 3 -108 5 -238 1 -130 6 -239 9 -242 10 -10 48 -16 64 -10 24 10 31 65 40
338 2 82 6 150 7 151 2 2 116 5 254 7 216 3 254 6 277 20 15 11 25 25 22 35
-6 32 -552 969 -586 1008 -5 5 -9 -5 -10 -25z"/>
<path d="M1295 4016 c-16 -8 -23 -15 -15 -16 58 -6 70 -11 132 -61 39 -32 71
-32 107 2 18 16 40 29 49 30 45 2 84 8 90 13 16 17 -26 28 -114 30 -55 2 -126
6 -159 10 -43 4 -69 2 -90 -8z"/>
<path d="M810 3863 c-23 -27 -82 -100 -130 -163 -91 -118 -107 -139 -198 -247
l-53 -63 66 -1 c36 -1 70 -3 75 -4 6 -1 15 -3 20 -4 17 -2 -4 -33 -97 -144
-73 -87 -216 -248 -262 -294 -23 -23 -12 -26 149 -38 46 -3 86 -8 88 -10 4 -4
-65 -88 -162 -198 -47 -54 -161 -180 -174 -194 -11 -11 41 -13 310 -13 l324 0
1 -51 c1 -29 6 -56 11 -61 5 -5 31 -11 57 -13 57 -3 75 13 75 65 0 29 5 42 19
50 11 5 74 10 141 10 112 0 122 1 115 18 -25 59 -36 121 -42 223 -8 149 -4
163 50 187 36 17 167 139 167 156 0 4 -51 63 -112 131 -62 68 -121 137 -131
154 l-18 31 45 1 c25 1 51 3 56 4 6 1 25 3 43 4 17 1 27 5 21 9 -5 4 -73 88
-149 187 -154 200 -247 313 -257 314 -3 1 -25 -20 -48 -46z"/>
<path d="M5180 3825 c-36 -12 -79 -29 -96 -38 -119 -61 -173 -263 -98 -369 41
-59 101 -102 187 -134 l73 -27 -2 -111 c-5 -196 -18 -321 -35 -331 -11 -7 -49
36 -115 131 -29 42 -86 117 -126 165 l-73 89 -2 -57 c-2 -32 -5 -72 -8 -90
l-6 -32 -41 15 c-53 18 -73 18 -105 -3 -15 -10 -87 -94 -161 -188 -75 -93
-138 -172 -141 -175 -3 -3 -31 -34 -61 -70 -30 -36 -62 -72 -70 -80 -29 -27
-103 -130 -98 -136 13 -12 239 -17 808 -17 778 0 850 2 850 27 0 19 -132 142
-315 295 -11 9 -53 43 -93 75 -40 32 -76 66 -81 75 -4 9 -7 110 -7 225 l1 209
54 28 c254 131 227 419 -49 523 -68 25 -118 25 -190 1z"/>
<path d="M1897 3616 c-20 -8 -44 -19 -52 -26 -9 -8 -38 -12 -73 -10 -106 4
-134 1 -184 -18 -30 -12 -46 -31 -26 -33 7 -1 44 0 81 0 67 2 70 1 112 -38 24
-22 49 -38 56 -37 41 7 58 21 80 62 26 52 29 54 101 63 63 7 73 26 21 40 -49
14 -69 13 -116 -3z"/>
<path d="M1689 3089 c-140 -22 -336 -169 -397 -298 -32 -69 -33 -148 -4 -215
12 -25 25 -46 29 -47 4 0 15 -2 25 -4 17 -3 58 37 58 58 0 21 30 56 63 73 42
22 174 25 187 4 19 -30 9 -69 -45 -178 -30 -61 -51 -114 -46 -116 26 -16 124
19 178 63 l36 30 21 -27 c37 -48 54 -59 104 -68 21 -4 40 23 36 53 -2 15 -6
67 -9 114 l-7 85 81 -1 c89 -2 106 -11 128 -62 17 -42 17 -80 -2 -132 -13 -37
-13 -42 3 -49 9 -5 32 -8 50 -6 70 6 109 56 113 148 2 26 6 49 11 52 12 8 151
-71 188 -106 27 -25 31 -35 26 -60 -6 -33 -7 -32 72 -33 52 0 62 11 62 76 0
55 -19 106 -55 149 -37 43 -61 97 -64 141 -4 51 16 56 73 16 25 -18 48 -30 51
-28 7 8 -36 83 -80 136 -96 117 -173 177 -273 213 -56 20 -72 22 -155 15 -147
-12 -239 -14 -264 -4 -33 12 -140 17 -194 8z"/>
<path d="M6764 2719 c-47 -49 -78 -58 -192 -52 -150 8 -195 -13 -280 -130 -21
-29 -48 -70 -61 -92 l-23 -40 46 48 c25 26 58 64 72 83 15 19 29 33 31 31 2
-3 8 -30 13 -60 13 -79 36 -124 71 -136 23 -8 29 -7 29 3 0 8 -7 19 -16 27 -8
7 -22 25 -30 40 -13 27 -13 29 10 44 41 27 234 24 237 -3 0 -4 2 -22 3 -41 3
-39 30 -64 60 -55 29 9 31 11 16 29 -18 22 -6 78 26 123 43 60 75 78 147 81 9
1 17 7 17 14 0 18 -26 41 -93 81 l-56 34 -27 -29z"/>
<path d="M6325 2168 c-49 -3 -103 -9 -119 -13 -161 -34 -303 -143 -369 -282
-29 -62 -32 -77 -32 -164 0 -89 3 -100 34 -162 18 -36 50 -82 71 -101 73 -67
199 -126 370 -172 165 -45 250 -99 250 -159 0 -33 -54 -92 -92 -100 -102 -23
-256 6 -402 76 -127 60 -263 12 -284 -101 -5 -25 -5 -58 -1 -74 34 -127 341
-240 624 -231 318 10 543 191 543 437 0 199 -89 314 -310 402 -20 8 -88 29
-150 47 -228 64 -279 106 -252 206 4 14 25 32 58 48 83 41 112 41 225 6 228
-72 309 -81 361 -43 59 44 78 128 46 197 -59 123 -308 203 -571 183z"/>
<path d="M594 2072 c-39 -25 -62 -73 -73 -154 -11 -85 -14 -180 -15 -679 l-1
-426 30 -27 c49 -44 106 -69 163 -72 63 -3 111 15 170 63 l42 34 -2 601 -3
600 -58 36 c-52 32 -67 36 -140 39 -68 4 -87 1 -113 -15z"/>
<path d="M1778 2075 c-73 -27 -98 -55 -114 -130 -4 -16 -9 -275 -11 -575 l-5
-545 41 -38 c106 -98 224 -99 309 -3 30 34 37 61 48 180 3 40 18 454 17 484
-1 30 -10 38 215 -192 362 -368 495 -497 535 -517 81 -42 169 -28 246 39 l42
37 0 589 0 589 -33 29 c-100 88 -198 90 -312 6 l-45 -33 0 -295 c0 -162 -4
-306 -9 -319 -8 -23 -27 -6 -318 286 -320 320 -400 394 -448 412 -37 15 -113
13 -158 -4z"/>
<path d="M4025 2061 c-22 -4 -50 -12 -62 -19 -21 -11 -26 -21 -40 -74 -11 -39
-12 -1038 -1 -1108 11 -73 26 -95 81 -120 46 -21 105 -23 532 -24 425 0 504
15 554 104 41 73 16 182 -51 227 -52 35 -137 41 -540 42 l-207 1 1 58 c1 94
-13 87 175 88 210 0 322 9 365 27 103 44 124 174 42 261 -53 55 -77 60 -342
64 l-242 4 6 51 c4 29 11 55 17 58 5 4 53 7 106 9 298 6 471 14 538 25 130 21
184 110 134 220 -16 36 -64 93 -80 96 -3 1 -19 3 -36 6 -49 8 -907 11 -950 4z"/>
<path d="M2709 439 c-127 -19 -223 -119 -222 -231 2 -122 116 -208 269 -203
87 2 150 34 192 97 23 36 27 52 27 117 0 64 -4 81 -25 111 -60 87 -143 124
-241 109z m110 -143 c37 -23 47 -97 20 -147 -22 -42 -109 -55 -168 -24 -40 20
-55 75 -37 133 16 49 128 73 185 38z"/>
<path d="M1533 433 c-7 -2 -13 -14 -13 -25 0 -28 82 -230 129 -319 67 -127
102 -114 216 80 l31 51 28 -57 c43 -86 89 -152 108 -159 44 -14 83 37 153 200
77 182 80 226 15 226 -40 0 -67 -26 -108 -105 -21 -39 -44 -70 -51 -70 -9 0
-33 35 -55 78 -46 92 -73 115 -114 98 -28 -12 -71 -75 -107 -158 -10 -24 -21
-43 -24 -43 -5 0 -32 51 -94 179 -10 20 -20 25 -57 27 -25 1 -51 0 -57 -3z"/>
<path d="M3345 430 c-37 -5 -41 -8 -42 -35 0 -16 -4 -112 -7 -213 l-7 -182 49
0 c54 0 72 12 72 49 1 91 29 97 99 21 43 -47 65 -62 93 -66 42 -7 88 2 88 17
0 5 -18 34 -41 64 l-41 55 32 47 c28 43 31 54 28 105 -5 67 -23 92 -87 121
-45 20 -153 28 -236 17z m179 -136 c14 -36 -79 -79 -104 -49 -18 22 -4 63 23
67 36 5 75 -3 81 -18z"/>
<path d="M4029 408 c-18 -34 -23 -358 -6 -382 10 -14 29 -18 97 -20 110 -3
259 9 272 22 6 6 8 22 4 36 -7 28 -30 33 -165 41 -40 2 -74 5 -76 7 -1 2 -6
63 -9 136 -9 169 -13 182 -65 182 -31 0 -43 -5 -52 -22z"/>
<path d="M4708 373 c-8 -131 -3 -342 9 -354 17 -17 168 -21 239 -7 61 12 136
57 167 100 25 33 33 114 17 163 -17 50 -99 131 -147 144 -21 6 -93 11 -160 11
l-121 0 -4 -57z m248 -78 c49 -38 63 -120 26 -158 -21 -20 -74 -35 -109 -29
-16 2 -24 12 -28 35 -7 38 -1 150 9 166 12 19 68 12 102 -14z"/>
<path d="M460 272 c-23 -3 -26 -7 -28 -53 l-1 -50 320 1 c176 1 334 6 351 10
63 19 83 61 35 74 -46 13 -595 28 -677 18z"/>
<path d="M5924 261 c-43 -11 -54 -19 -54 -40 0 -44 15 -46 359 -45 179 1 344
6 366 11 62 14 58 59 -6 69 -56 9 -631 13 -665 5z"/>
</g>
</svg>
